<svg width="178" height="178" viewBox="0 0 178 178" fill="none" xmlns="http://www.w3.org/2000/svg">
<circle cx="89" cy="89" r="87" fill="#9D9D9D" stroke="white" stroke-width="3"/>
<path d="M112.542 92.7917C111.669 92.7917 110.832 93.1385 110.214 93.7558C109.597 94.3731 109.25 95.2104 109.25 96.0834V97.3342L104.378 92.4625C102.658 90.7559 100.333 89.7983 97.9104 89.7983C95.4873 89.7983 93.1624 90.7559 91.4422 92.4625L89.1381 94.7667L80.9747 86.6034C79.2306 84.9431 76.9147 84.017 74.5066 84.017C72.0985 84.017 69.7827 84.9431 68.0385 86.6034L63.1668 91.475V73.0417C63.1668 72.1687 63.5136 71.3314 64.1309 70.7141C64.7482 70.0968 65.5855 69.75 66.4585 69.75H89.5002C90.3732 69.75 91.2104 69.4032 91.8277 68.7859C92.445 68.1686 92.7918 67.3314 92.7918 66.4584C92.7918 65.5854 92.445 64.7481 91.8277 64.1308C91.2104 63.5135 90.3732 63.1667 89.5002 63.1667H66.4585C63.8395 63.1667 61.3277 64.2071 59.4758 66.059C57.6239 67.9109 56.5835 70.4227 56.5835 73.0417V112.542C56.5835 115.161 57.6239 117.672 59.4758 119.524C61.3277 121.376 63.8395 122.417 66.4585 122.417H105.958C108.578 122.417 111.089 121.376 112.941 119.524C114.793 117.672 115.833 115.161 115.833 112.542V96.0834C115.833 95.2104 115.487 94.3731 114.869 93.7558C114.252 93.1385 113.415 92.7917 112.542 92.7917ZM66.4585 115.833C65.5855 115.833 64.7482 115.487 64.1309 114.869C63.5136 114.252 63.1668 113.415 63.1668 112.542V100.79L72.7127 91.2446C73.1962 90.7838 73.8386 90.5267 74.5066 90.5267C75.1746 90.5267 75.817 90.7838 76.3006 91.2446L86.7352 101.679L100.889 115.833H66.4585ZM109.25 112.542C109.245 113.172 109.038 113.784 108.658 114.286L93.8122 99.375L96.1164 97.0709C96.3524 96.83 96.6341 96.6387 96.945 96.508C97.2558 96.3774 97.5896 96.3101 97.9268 96.3101C98.264 96.3101 98.5978 96.3774 98.9087 96.508C99.2196 96.6387 99.5013 96.83 99.7372 97.0709L109.25 106.65V112.542ZM124.754 64.1213L114.879 54.2463C114.566 53.9466 114.197 53.7117 113.793 53.555C112.991 53.2258 112.092 53.2258 111.291 53.555C110.887 53.7117 110.518 53.9466 110.205 54.2463L100.33 64.1213C99.7099 64.7411 99.3617 65.5818 99.3617 66.4584C99.3617 67.3349 99.7099 68.1756 100.33 68.7954C100.95 69.4153 101.79 69.7635 102.667 69.7635C103.543 69.7635 104.384 69.4153 105.004 68.7954L109.25 64.5163V82.9167C109.25 83.7897 109.597 84.6269 110.214 85.2443C110.832 85.8616 111.669 86.2084 112.542 86.2084C113.415 86.2084 114.252 85.8616 114.869 85.2443C115.487 84.6269 115.833 83.7897 115.833 82.9167V64.5163L120.08 68.7954C120.386 69.104 120.75 69.3488 121.151 69.516C121.552 69.6831 121.982 69.7691 122.417 69.7691C122.851 69.7691 123.282 69.6831 123.683 69.516C124.084 69.3488 124.448 69.104 124.754 68.7954C125.062 68.4894 125.307 68.1254 125.474 67.7243C125.642 67.3231 125.728 66.8929 125.728 66.4584C125.728 66.0238 125.642 65.5936 125.474 65.1925C125.307 64.7913 125.062 64.4273 124.754 64.1213Z" fill="white"/>
</svg>
