<svg width="20" height="17" viewBox="0 0 20 17" fill="none" xmlns="http://www.w3.org/2000/svg">
<path d="M19.3242 8.32013C19.3242 8.76311 18.995 9.1292 18.568 9.18714L18.4492 9.19513L0.949217 9.19513C0.465969 9.19513 0.0742168 8.80338 0.0742168 8.32013C0.0742168 7.87715 0.403397 7.51106 0.830486 7.45312L0.949217 7.44513L18.4492 7.44513C18.9325 7.44513 19.3242 7.83688 19.3242 8.32013Z" fill="white"/>
<path d="M8.62422 14.7285C8.96666 15.0695 8.96786 15.6235 8.62689 15.9659C8.31691 16.2772 7.83086 16.3065 7.48777 16.0531L7.38945 15.9686L0.331118 8.9406C0.0188742 8.6297 -0.00953007 8.1419 0.245916 7.79881L0.331066 7.70055L7.3894 0.671384C7.73182 0.330383 8.28583 0.33153 8.62683 0.673946C8.93683 0.985233 8.96407 1.4714 8.7092 1.81342L8.62427 1.91138L2.1889 8.3209L8.62422 14.7285Z" fill="white"/>
</svg>
