<svg width="20" height="15" viewBox="0 0 20 15" fill="none" xmlns="http://www.w3.org/2000/svg">
<path d="M17.5 0H2.5C1.09375 0 0 1.13281 0 2.5V12.5C0 13.9062 1.09375 15 2.5 15H17.5C18.8672 15 20 13.9062 20 12.5V2.5C20 1.13281 18.8672 0 17.5 0ZM2.5 1.875H17.5C17.8125 1.875 18.125 2.1875 18.125 2.5V3.39844L11.6016 8.78906C10.7031 9.53125 9.25781 9.53125 8.35938 8.78906L1.875 3.39844V2.5C1.875 2.1875 2.14844 1.875 2.5 1.875ZM17.5 13.125H2.5C2.14844 13.125 1.875 12.8516 1.875 12.5V5.82031L7.1875 10.2734C7.96875 10.8984 8.94531 11.25 10 11.25C11.0156 11.25 11.9922 10.8984 12.7734 10.2734L18.125 5.82031V12.5C18.125 12.8516 17.8125 13.125 17.5 13.125Z" fill="white"/>
</svg>
