<svg width="15" height="15" viewBox="0 0 15 15" fill="none" xmlns="http://www.w3.org/2000/svg">
<path d="M14.8623 6.13485H7.65265V9.03713H11.7713C11.5937 9.97524 11.0549 10.7687 10.2428 11.3003C9.55634 11.7498 8.68032 12.0156 7.65066 12.0156C5.65718 12.0156 3.971 10.6964 3.36837 8.92378C3.21671 8.47427 3.12891 7.99349 3.12891 7.49902C3.12891 7.00456 3.21671 6.52378 3.36837 6.07427C3.97299 4.30358 5.65917 2.98436 7.65265 2.98436C8.77611 2.98436 9.78382 3.36352 10.578 4.10619L12.773 1.9544C11.4461 0.742671 9.71598 0 7.65265 0C4.66143 0 2.0733 1.68078 0.814155 4.1316C0.295331 5.14397 0 6.28925 0 7.50098C0 8.7127 0.295331 9.85603 0.814155 10.8684C2.0733 13.3192 4.66143 15 7.65265 15C9.71997 15 11.452 14.3277 12.7172 13.1824C14.1639 11.8769 15 9.95375 15 7.66906C15 7.13746 14.9521 6.62736 14.8623 6.13485Z" fill="#B82929"/>
</svg>
