<svg width="21" height="21" viewBox="0 0 21 21" fill="none" xmlns="http://www.w3.org/2000/svg">
<path d="M20.8072 8.58879H10.7137V12.652H16.4798C16.2312 13.9653 15.4769 15.0762 14.3399 15.8205C13.3789 16.4498 12.1525 16.8219 10.7109 16.8219C7.92005 16.8219 5.5594 14.975 4.71571 12.4933C4.50339 11.864 4.38047 11.1909 4.38047 10.4986C4.38047 9.80639 4.50339 9.13329 4.71571 8.50397C5.56219 6.02502 7.92284 4.17811 10.7137 4.17811C12.2866 4.17811 13.6974 4.70893 14.8092 5.74866L17.8823 2.73616C16.0245 1.03974 13.6024 0 10.7137 0C6.52601 0 2.90262 2.35309 1.13982 5.78423C0.413463 7.20156 0 8.80495 0 10.5014C0 12.1978 0.413463 13.7984 1.13982 15.2158C2.90262 18.6469 6.52601 21 10.7137 21C13.608 21 16.0329 20.0588 17.804 18.4554C19.8295 16.6276 21 13.9352 21 10.7367C21 9.99244 20.933 9.27831 20.8072 8.58879Z" fill="white"/>
</svg>
