<svg width="20" height="21" viewBox="0 0 20 21" fill="none" xmlns="http://www.w3.org/2000/svg">
<path fill-rule="evenodd" clip-rule="evenodd" d="M0 10.2385C0 4.81074 4.41596 0.394775 9.84375 0.394775C15.2715 0.394775 19.6875 4.81074 19.6875 10.2385C19.6875 15.6663 15.2715 20.0823 9.84375 20.0823C4.41596 20.0823 0 15.6663 0 10.2385ZM12.5976 11.3048L14.8163 5.7582C14.8438 5.6894 14.8505 5.61402 14.8357 5.54142C14.8208 5.46883 14.7849 5.40219 14.7325 5.34979C14.6801 5.29739 14.6135 5.26151 14.5409 5.24662C14.4683 5.23173 14.3929 5.23847 14.3241 5.26601L8.7775 7.48464C8.39657 7.63698 8.05055 7.86512 7.76045 8.15522C7.47035 8.44533 7.24221 8.79134 7.08987 9.17228L4.87124 14.7189C4.8437 14.7877 4.83695 14.863 4.85185 14.9356C4.86674 15.0082 4.90261 15.0749 4.95502 15.1273C5.00742 15.1797 5.07405 15.2155 5.14665 15.2304C5.21925 15.2453 5.29462 15.2386 5.36342 15.211L10.91 12.9924C11.2909 12.8401 11.6369 12.6119 11.9271 12.3218C12.2172 12.0317 12.4453 11.6857 12.5976 11.3048ZM10.9796 10.2385C10.9796 10.8658 10.4711 11.3743 9.84379 11.3743C9.21649 11.3743 8.70797 10.8658 8.70797 10.2385C8.70797 9.61124 9.21649 9.10271 9.84379 9.10271C10.4711 9.10271 10.9796 9.61124 10.9796 10.2385Z" fill="#9D9D9D"/>
</svg>
