<svg width="228" height="89" viewBox="0 0 228 89" fill="none" xmlns="http://www.w3.org/2000/svg">
<path d="M36.2357 44.7209C36.2357 45.3448 36.2173 45.8776 36.1805 46.3148C36.1437 46.752 36.084 47.1254 36.0104 47.4397C35.9322 47.7539 35.8356 48.0226 35.7068 48.2457C35.578 48.4689 35.3802 48.7285 35.0996 49.0154C34.8237 49.3023 34.2855 49.6712 33.4898 50.122C32.694 50.5729 31.7235 51.0009 30.5736 51.4154C29.4237 51.8298 28.1128 52.1713 26.6363 52.4446C25.1599 52.7178 23.5638 52.859 21.8482 52.859C18.4904 52.859 15.4639 52.3489 12.7593 51.3197C10.0594 50.2951 7.75954 48.7649 5.8691 46.7292C3.97866 44.6936 2.52519 42.1479 1.51327 39.1012C0.501358 36.05 0 32.5023 0 28.4538C0 24.4052 0.556553 20.6709 1.66506 17.4694C2.77357 14.2724 4.32823 11.5855 6.31987 9.4087C8.3115 7.23642 10.7033 5.58329 13.4953 4.45844C16.2826 3.33359 19.3552 2.77344 22.7129 2.77344C24.0744 2.77344 25.3899 2.88729 26.6501 3.11044C27.9104 3.33359 29.0787 3.6296 30.1505 3.98937C31.2222 4.3537 32.1881 4.77267 33.0482 5.24629C33.9083 5.71991 34.5063 6.12523 34.8467 6.46223C35.187 6.79923 35.4216 7.08158 35.5458 7.30473C35.67 7.52788 35.7712 7.81478 35.8494 8.16545C35.923 8.51611 35.9828 8.92597 36.0196 9.40415C36.0564 9.87777 36.0747 10.4652 36.0747 11.1666C36.0747 11.918 36.0472 12.551 36.0012 13.0793C35.9506 13.603 35.8632 14.0311 35.7344 14.3544C35.6056 14.6778 35.4584 14.9191 35.279 15.0648C35.1042 15.2151 34.9019 15.288 34.6719 15.288C34.2947 15.288 33.8117 15.0694 33.2322 14.6322C32.6526 14.195 31.8983 13.7077 30.9784 13.1704C30.0585 12.633 28.9592 12.1457 27.6851 11.7085C26.411 11.2713 24.8885 11.0527 23.1222 11.0527C21.1766 11.0527 19.4426 11.4444 17.9155 12.2322C16.3884 13.0201 15.0867 14.1449 14.015 15.6068C12.9433 17.0686 12.1292 18.8356 11.5726 20.9123C11.0161 22.9889 10.7401 25.3251 10.7401 27.921C10.7401 30.7718 11.0345 33.2401 11.6278 35.3259C12.2212 37.4116 13.0675 39.1331 14.1668 40.4811C15.2661 41.8291 16.5908 42.8355 18.1409 43.5004C19.6909 44.1653 21.4388 44.4932 23.3844 44.4932C25.1507 44.4932 26.6777 44.2883 27.9656 43.8738C29.2535 43.4594 30.3574 43.004 31.2774 42.5076C32.1973 42.0067 32.9562 41.5604 33.5496 41.1596C34.1429 40.7589 34.6029 40.5585 34.9294 40.5585C35.1824 40.5585 35.3848 40.6086 35.5366 40.7088C35.6884 40.809 35.8126 41.0093 35.9138 41.3099C36.015 41.6105 36.0886 42.0294 36.1391 42.5668C36.1897 43.1042 36.2127 43.8237 36.2127 44.7209H36.2357Z" fill="white"/>
<path d="M64.5187 20.4659C64.5187 21.3676 64.4911 22.1054 64.4405 22.6792C64.3899 23.253 64.3164 23.7039 64.2152 24.0272C64.114 24.3506 63.9806 24.5783 63.8196 24.7012C63.654 24.8287 63.447 24.8879 63.194 24.8879C62.9917 24.8879 62.7663 24.8424 62.5133 24.7559C62.2603 24.6693 61.9751 24.5737 61.6624 24.4735C61.345 24.3733 61 24.2822 60.6229 24.1912C60.2457 24.1046 59.8271 24.0591 59.3718 24.0591C58.8428 24.0591 58.3093 24.1638 57.7803 24.3779C57.2513 24.5919 56.6994 24.9198 56.1336 25.3707C55.5679 25.8215 54.9745 26.4227 54.3536 27.1695C53.7326 27.9209 53.0703 28.8454 52.3666 29.9429V50.7869C52.3666 51.0373 52.293 51.2559 52.1412 51.4427C51.9894 51.6294 51.7318 51.7842 51.3638 51.9117C50.9959 52.0392 50.5129 52.1303 49.9058 52.1941C49.2986 52.2578 48.5305 52.2897 47.5968 52.2897C46.663 52.2897 45.8949 52.2578 45.2878 52.1941C44.6806 52.1303 44.1976 52.0392 43.8297 51.9117C43.4617 51.7888 43.2041 51.6294 43.0523 51.4427C42.9006 51.2559 42.827 51.0373 42.827 50.7869V17.3555C42.827 17.105 42.8914 16.8865 43.0156 16.6997C43.1397 16.513 43.3697 16.3582 43.6963 16.2307C44.0229 16.1077 44.446 16.0121 44.9658 15.9483C45.4809 15.8846 46.1341 15.8527 46.916 15.8527C47.698 15.8527 48.3925 15.8846 48.9215 15.9483C49.4504 16.0121 49.8598 16.1032 50.1495 16.2307C50.4393 16.3582 50.6463 16.513 50.7751 16.6997C50.8993 16.8865 50.9637 17.105 50.9637 17.3555V21.5179C51.8468 20.2701 52.6793 19.2363 53.4613 18.4257C54.2432 17.6151 54.9883 16.9684 55.6967 16.4948C56.405 16.0212 57.1088 15.6887 57.8171 15.502C58.5254 15.3153 59.2292 15.2197 59.9375 15.2197C60.2641 15.2197 60.6183 15.2379 61 15.2743C61.3772 15.3107 61.7682 15.3745 62.1729 15.461C62.5777 15.5476 62.9319 15.6477 63.2308 15.7616C63.5344 15.8755 63.7552 15.9939 63.8932 16.1168C64.0312 16.2443 64.1324 16.381 64.1968 16.5312C64.2612 16.6815 64.3163 16.8865 64.3669 17.1506C64.4175 17.4147 64.4543 17.8064 64.4819 18.3301C64.5049 18.8538 64.5187 19.5688 64.5187 20.4659Z" fill="white"/>
<path d="M159.616 17.2827C159.616 17.5559 159.579 17.8929 159.501 18.2937C159.423 18.6944 159.285 19.2682 159.082 20.0196L150.072 50.2723C149.943 50.6958 149.782 51.0419 149.579 51.3015C149.377 51.5656 149.069 51.7706 148.65 51.9208C148.232 52.0711 147.638 52.1713 146.87 52.2214C146.102 52.2715 145.095 52.2988 143.862 52.2988C142.629 52.2988 141.617 52.2669 140.835 52.2032C140.054 52.1394 139.442 52.0347 139 51.8844C138.559 51.7341 138.237 51.5292 138.034 51.2651C137.832 51.0009 137.68 50.673 137.579 50.2723L131.898 29.9566L131.825 29.6196L131.747 29.9566L126.521 50.2723C126.42 50.6958 126.273 51.0419 126.085 51.3015C125.896 51.5656 125.574 51.7706 125.119 51.9208C124.663 52.0711 124.047 52.1713 123.265 52.2214C122.483 52.2715 121.471 52.2988 120.238 52.2988C119.006 52.2988 117.962 52.2669 117.189 52.2032C116.421 52.1394 115.814 52.0347 115.372 51.8844C114.93 51.7341 114.609 51.5292 114.406 51.2651C114.204 51.0009 114.052 50.673 113.951 50.2723L105.014 20.0196C104.788 19.2956 104.641 18.7263 104.577 18.3119C104.512 17.8975 104.48 17.5559 104.48 17.2827C104.48 17.0322 104.549 16.8136 104.687 16.6269C104.825 16.4402 105.078 16.2899 105.446 16.176C105.809 16.0622 106.302 15.9848 106.923 15.9301C107.539 15.88 108.316 15.8572 109.25 15.8572C110.257 15.8572 111.081 15.88 111.711 15.9301C112.341 15.9802 112.833 16.0667 113.187 16.1942C113.541 16.3218 113.785 16.4903 113.923 16.6997C114.061 16.9138 114.172 17.1688 114.245 17.4694L120.947 42.0249L121.02 42.4757L121.099 42.0249L127.382 17.4694C127.455 17.1688 127.575 16.9138 127.74 16.6997C127.906 16.4903 128.15 16.3172 128.476 16.1942C128.803 16.0713 129.263 15.9848 129.856 15.9301C130.45 15.88 131.213 15.8572 132.147 15.8572C133.081 15.8572 133.839 15.8891 134.419 15.9529C134.999 16.0166 135.459 16.1032 135.799 16.217C136.139 16.3309 136.378 16.4811 136.516 16.6679C136.654 16.8546 136.765 17.0732 136.838 17.3236L143.577 42.0659L143.692 42.4803L143.77 42.0294L150.205 17.4739C150.255 17.1734 150.357 16.9183 150.508 16.7043C150.66 16.4948 150.913 16.3218 151.267 16.1988C151.622 16.0758 152.1 15.9893 152.707 15.9347C153.314 15.8846 154.082 15.8618 155.016 15.8618C155.95 15.8618 156.713 15.8846 157.307 15.9347C157.9 15.9848 158.365 16.0667 158.71 16.1806C159.055 16.2944 159.285 16.4447 159.409 16.6314C159.533 16.8181 159.597 17.0367 159.597 17.2872L159.616 17.2827Z" fill="white"/>
<path d="M196.399 50.796C196.399 51.0692 196.334 51.3015 196.21 51.4882C196.081 51.6749 195.87 51.8298 195.566 51.9573C195.263 52.0802 194.853 52.1713 194.334 52.2214C193.818 52.2715 193.179 52.2988 192.42 52.2988C191.611 52.2988 190.957 52.2715 190.451 52.2214C189.946 52.1713 189.536 52.0848 189.219 51.9573C188.901 51.8343 188.676 51.6749 188.538 51.4882C188.4 51.3015 188.331 51.0692 188.331 50.796V47.0844C186.588 48.9334 184.766 50.3725 182.862 51.3971C180.958 52.4218 178.842 52.9364 176.519 52.9364C173.943 52.9364 171.768 52.4446 169.988 51.4563C168.208 50.4681 166.754 49.1383 165.632 47.4624C164.51 45.7865 163.696 43.8328 163.19 41.5968C162.684 39.3607 162.431 37.0063 162.431 34.5289C162.431 31.5551 162.753 28.8819 163.397 26.5046C164.041 24.132 164.979 22.1054 166.216 20.4341C167.453 18.7582 168.994 17.4739 170.834 16.5722C172.674 15.6705 174.799 15.2242 177.195 15.2242C179.09 15.2242 180.806 15.6068 182.347 16.3673C183.888 17.1278 185.415 18.2481 186.928 19.7236V1.61214C186.928 1.36166 186.997 1.13852 187.135 0.938136C187.273 0.737758 187.526 0.569258 187.894 0.432636C188.257 0.296014 188.745 0.191271 189.352 0.113852C189.959 0.0364325 190.727 0 191.661 0C192.595 0 193.363 0.0364325 193.97 0.113852C194.577 0.191271 195.056 0.296014 195.41 0.432636C195.764 0.569258 196.017 0.737758 196.169 0.938136C196.321 1.13852 196.394 1.36166 196.394 1.61214V50.796H196.399ZM186.933 28.4538C185.571 26.7551 184.265 25.4572 183.014 24.5555C181.763 23.6538 180.457 23.2075 179.095 23.2075C177.858 23.2075 176.791 23.5126 175.894 24.1274C174.997 24.7377 174.279 25.5574 173.737 26.5821C173.194 27.6067 172.789 28.7498 172.527 30.0113C172.26 31.2727 172.131 32.5661 172.131 33.8913C172.131 35.2894 172.246 36.6511 172.472 37.9763C172.697 39.3015 173.07 40.481 173.589 41.5194C174.104 42.5577 174.794 43.3865 175.655 44.0104C176.515 44.6343 177.6 44.9486 178.911 44.9486C179.569 44.9486 180.204 44.8529 180.825 44.6662C181.441 44.4795 182.076 44.1744 182.72 43.7463C183.363 43.3228 184.026 42.7672 184.707 42.0795C185.387 41.3919 186.132 40.5494 186.942 39.5475V28.4492L186.933 28.4538Z" fill="white"/>
<path d="M216.412 46.67C216.412 48.9926 216.002 50.5546 215.184 51.3562C214.365 52.1577 212.893 52.5539 210.773 52.5539C208.652 52.5539 207.189 52.1622 206.38 51.3744C205.57 50.5865 205.17 49.0928 205.17 46.8932C205.17 44.5433 205.58 42.9676 206.398 42.1706C207.217 41.3737 208.703 40.9729 210.846 40.9729C212.99 40.9729 214.392 41.3645 215.202 42.1524C216.012 42.9403 216.412 44.4476 216.412 46.67Z" fill="white"/>
<path d="M116.55 80.8027C116.55 85.3294 102.272 89 84.6605 89C67.0486 89 52.7714 85.3294 52.7714 80.8027C52.7714 77.6194 59.8318 74.8596 70.1441 73.5025C63.5253 74.6593 59.1878 76.5947 59.1878 78.7898C59.1878 82.3283 70.4569 85.1928 84.3569 85.1928C98.2569 85.1928 109.526 82.3283 109.526 78.7898C109.526 76.3943 104.37 74.3131 96.7344 73.2111C108.362 74.4361 116.55 77.3735 116.55 80.8027Z" fill="#A2A0A1"/>
<path d="M106.127 78.1067C106.127 80.8072 96.4125 82.9978 84.4305 82.9978C72.4485 82.9978 62.7341 80.8072 62.7341 78.1067C62.7341 76.531 66.0229 75.1329 71.133 74.2403C68.5664 74.9325 67.021 75.8297 67.021 76.8133C67.021 79.0175 74.8173 80.8027 84.4305 80.8027C94.0437 80.8027 101.84 79.0175 101.84 76.8133C101.84 75.8297 100.295 74.9325 97.728 74.2403C102.838 75.1329 106.127 76.531 106.127 78.1067Z" fill="#CFCFCF"/>
<path d="M97.5532 76.4125C97.5532 78.0065 91.7025 79.2998 84.4857 79.2998C77.2689 79.2998 71.4182 78.0065 71.4182 76.4125C71.4182 75.3833 73.8468 74.4816 77.5035 73.967C75.4245 74.3814 74.1182 74.978 74.1182 75.6429C74.1182 76.8953 78.75 77.9108 84.4673 77.9108C90.1846 77.9108 94.8164 76.8953 94.8164 75.6429C94.8164 74.9689 93.4734 74.3632 91.3437 73.9488C95.0694 74.4588 97.5532 75.3697 97.5532 76.4125Z" fill="#A2A0A1"/>
<path d="M84.4856 61.7713C81.6201 68.361 84.1131 74.3906 84.1131 74.3906C82.632 73.161 76.1143 67.5595 68.6722 58.6517C67.5545 57.3129 66.5886 55.9466 65.7606 54.585C69.5507 55.5413 72.683 55.5914 75.2312 55.1542H75.2358C78.7361 54.5577 81.1417 53.0548 82.6458 51.7387C83.1563 51.7933 83.6761 51.8207 84.2051 51.8207C86.2887 51.8207 88.2711 51.388 90.0604 50.6093C90.3593 50.4818 90.6491 50.3406 90.9343 50.1903C89.4348 53.4419 86.4267 57.3038 84.4856 61.7713Z" fill="url(#paint0_linear_35_211)"/>
<path d="M96.6194 62.0536C90.4559 68.9849 85.3964 73.3249 84.1131 74.3905C84.1131 74.3905 81.6201 68.361 84.4856 61.7712C86.4267 57.3037 89.4348 53.4419 90.9343 50.1903C95.6029 47.7857 98.7904 42.9493 98.7904 37.3751C98.7904 30.8036 94.3564 25.2568 88.2895 23.508C85.3734 21.4268 81.7903 20.2018 77.9266 20.2018C69.9877 20.2018 63.2676 25.3615 60.9954 32.475C61.6164 29.1824 62.9411 26.1312 64.8039 23.4853C82.7102 7.85572 99.7287 23.3486 101.099 37.3751C101.992 46.4787 99.0802 55.9512 96.6194 62.0536Z" fill="url(#paint1_linear_35_211)"/>
<path d="M88.2895 23.508C86.9924 23.1346 85.6217 22.9342 84.2051 22.9342C79.8906 22.9342 76.0085 24.7877 73.3362 27.7388C70.8248 27.7251 65.1811 28.2898 60.8804 33.1444C60.9126 32.9258 60.9494 32.7072 60.9908 32.4886C60.9908 32.4841 60.9954 32.4795 60.9954 32.475C63.2676 25.3615 69.9877 20.2018 77.9266 20.2018C81.7903 20.2018 85.3734 21.4268 88.2895 23.508Z" fill="url(#paint2_linear_35_211)"/>
<path d="M82.6458 51.7387C81.1417 53.0548 78.7361 54.5576 75.2358 55.1542H75.2312C72.683 55.5914 69.5507 55.5413 65.7606 54.5849C63.6816 51.1785 62.4397 47.7948 61.6946 44.9076C60.4757 40.1896 60.5907 36.7922 60.5907 36.7922C60.5907 35.549 60.6873 34.333 60.8804 33.1444C65.1811 28.2898 70.8248 27.7251 73.3362 27.7388C71.0226 30.2936 69.6151 33.6727 69.6151 37.3752C69.6151 44.8302 75.3186 50.969 82.6458 51.7387Z" fill="url(#paint3_linear_35_211)"/>
<path d="M99.554 58.6517C98.5558 59.8449 97.5761 60.9834 96.6194 62.0536C99.0802 55.9512 101.992 46.4787 101.099 37.3752C99.7287 23.3487 82.7102 7.85575 64.8039 23.4853C69.0539 17.4466 76.1189 13.4982 84.1131 13.4982C97.107 13.4982 107.64 23.927 107.64 36.7922V36.9289C107.649 38.2678 107.493 49.1429 99.554 58.6517Z" fill="url(#paint4_linear_35_211)"/>
<path d="M221.255 11.6311C218.086 11.6311 215.506 9.07623 215.506 5.93849C215.506 2.80074 218.086 0.245911 221.255 0.245911C224.424 0.245911 227.005 2.80074 227.005 5.93849C227.005 9.07623 224.424 11.6311 221.255 11.6311ZM221.255 1.16128C218.592 1.16128 216.425 3.30624 216.425 5.94304C216.425 8.57984 218.592 10.7248 221.255 10.7248C223.918 10.7248 226.085 8.57984 226.085 5.94304C226.085 3.30624 223.918 1.16128 221.255 1.16128Z" fill="white"/>
<path d="M223.536 4.56772C223.536 4.9958 223.417 5.36013 223.178 5.65614C222.939 5.95671 222.566 6.17531 222.069 6.32104V6.33925L223.914 8.8622H222.552L220.864 6.48498H220.087V8.8622H218.951V2.72333H220.837C221.149 2.72333 221.439 2.74154 221.706 2.77798C221.973 2.81441 222.203 2.8645 222.396 2.93737C222.759 3.07399 223.04 3.27892 223.238 3.55217C223.435 3.82541 223.532 4.16241 223.532 4.57228L223.536 4.56772ZM220.643 5.54685C220.901 5.54685 221.122 5.53318 221.306 5.51041C221.485 5.48764 221.637 5.45121 221.761 5.40567C221.991 5.31914 222.147 5.20074 222.235 5.05501C222.322 4.90472 222.368 4.73622 222.368 4.54495C222.368 4.38101 222.331 4.23528 222.262 4.10776C222.193 3.98025 222.074 3.88006 221.908 3.80719C221.798 3.7571 221.664 3.72067 221.499 3.6979C221.333 3.67513 221.131 3.66146 220.892 3.66146H220.082V5.54229H220.643V5.54685Z" fill="white"/>
<defs>
<linearGradient id="paint0_linear_35_211" x1="65.7606" y1="62.2904" x2="90.9343" y2="62.2904" gradientUnits="userSpaceOnUse">
<stop stop-color="#541997"/>
<stop offset="1" stop-color="#4A0771"/>
</linearGradient>
<linearGradient id="paint1_linear_35_211" x1="66.4506" y1="60.3048" x2="95.4471" y2="23.9411" gradientUnits="userSpaceOnUse">
<stop stop-color="#7919B9"/>
<stop offset="1" stop-color="#AA3CBA"/>
</linearGradient>
<linearGradient id="paint2_linear_35_211" x1="60.8804" y1="26.6731" x2="88.2895" y2="26.6731" gradientUnits="userSpaceOnUse">
<stop stop-color="#5F0E8E"/>
<stop offset="1" stop-color="#450A66"/>
</linearGradient>
<linearGradient id="paint3_linear_35_211" x1="60.5907" y1="41.5786" x2="82.6458" y2="41.5786" gradientUnits="userSpaceOnUse">
<stop stop-color="#621EAA"/>
<stop offset="1" stop-color="#601196"/>
</linearGradient>
<linearGradient id="paint4_linear_35_211" x1="73.1614" y1="52.2897" x2="99.4687" y2="18.8174" gradientUnits="userSpaceOnUse">
<stop stop-color="#9B37BC"/>
<stop offset="1" stop-color="#BE6FBE"/>
</linearGradient>
</defs>
</svg>
