<svg width="10" height="13" viewBox="0 0 10 13" fill="none" xmlns="http://www.w3.org/2000/svg">
<path d="M5.09448 6.0946C5.41964 6.0946 5.69811 5.97872 5.92986 5.74696C6.16123 5.5156 6.27691 5.23733 6.27691 4.91216C6.27691 4.58699 6.16123 4.30853 5.92986 4.07678C5.69811 3.84541 5.41964 3.72973 5.09448 3.72973C4.76931 3.72973 4.49104 3.84541 4.25968 4.07678C4.02792 4.30853 3.91204 4.58699 3.91204 4.91216C3.91204 5.23733 4.02792 5.5156 4.25968 5.74696C4.49104 5.97872 4.76931 6.0946 5.09448 6.0946ZM5.09448 12.0068C3.50805 10.6568 2.32325 9.40285 1.54008 8.24485C0.756525 7.08725 0.364746 6.01577 0.364746 5.03041C0.364746 3.55237 0.840281 2.37486 1.79135 1.49789C2.74203 0.620919 3.84307 0.182434 5.09448 0.182434C6.34588 0.182434 7.44693 0.620919 8.3976 1.49789C9.34867 2.37486 9.82421 3.55237 9.82421 5.03041C9.82421 6.01577 9.43262 7.08725 8.64946 8.24485C7.8659 9.40285 6.68091 10.6568 5.09448 12.0068Z" fill="white"/>
</svg>
