<svg width="6" height="6" viewBox="0 0 6 6" fill="none" xmlns="http://www.w3.org/2000/svg">
<path d="M2.99993 5.02656L1.54576 5.94382C1.48152 5.98662 1.41435 6.00497 1.34427 5.99885C1.27419 5.99274 1.21287 5.96828 1.16031 5.92547C1.10775 5.88267 1.06687 5.82922 1.03767 5.76514C1.00847 5.70081 1.00263 5.62889 1.02015 5.5494L1.40559 3.81578L0.117858 2.65087C0.0594577 2.59583 0.0230156 2.53309 0.00853224 2.46265C-0.00618474 2.39245 -0.00186311 2.32372 0.0214972 2.25645C0.0448575 2.18918 0.0798979 2.13415 0.126618 2.09134C0.173339 2.04854 0.23758 2.02102 0.319341 2.00879L2.0188 1.85286L2.67581 0.220142C2.70501 0.146761 2.75033 0.0917256 2.81177 0.0550354C2.87297 0.0183452 2.93569 0 2.99993 0C3.06417 0 3.12701 0.0183452 3.18845 0.0550354C3.24966 0.0917256 3.29486 0.146761 3.32406 0.220142L3.98107 1.85286L5.68053 2.00879C5.76229 2.02102 5.82653 2.04854 5.87325 2.09134C5.91997 2.13415 5.95501 2.18918 5.97837 2.25645C6.00173 2.32372 6.00617 2.39245 5.99169 2.46265C5.97697 2.53309 5.94041 2.59583 5.88201 2.65087L4.59427 3.81578L4.97972 5.5494C4.99724 5.62889 4.9914 5.70081 4.9622 5.76514C4.933 5.82922 4.89212 5.88267 4.83956 5.92547C4.787 5.96828 4.72568 5.99274 4.65559 5.99885C4.58551 6.00497 4.51835 5.98662 4.45411 5.94382L2.99993 5.02656Z" fill="black"/>
</svg>
