<svg width="12" height="14" viewBox="0 0 12 14" fill="none" xmlns="http://www.w3.org/2000/svg">
<path d="M4.91192 1.77365H7.27679C7.60196 1.77365 7.868 1.5076 7.868 1.18243C7.868 0.857264 7.60196 0.591217 7.27679 0.591217H4.91192C4.58675 0.591217 4.32071 0.857264 4.32071 1.18243C4.32071 1.5076 4.58675 1.77365 4.91192 1.77365ZM10.2506 4.36909L10.694 3.92568C10.8033 3.81568 10.8647 3.6669 10.8647 3.51183C10.8647 3.35675 10.8033 3.20797 10.694 3.09797L10.6881 3.09206C10.5781 2.98274 10.4293 2.92138 10.2743 2.92138C10.1192 2.92138 9.9704 2.98274 9.8604 3.09206L9.41699 3.53547C8.47538 2.77773 7.303 2.36468 6.09436 2.36487C3.25652 2.36487 0.844355 4.70608 0.773409 7.54392C0.754289 8.25457 0.8778 8.96184 1.13664 9.62395C1.39549 10.2861 1.78441 10.8896 2.28044 11.3988C2.77647 11.9081 3.36954 12.3127 4.02461 12.5889C4.67967 12.8651 5.38345 13.0072 6.09436 13.0068C7.09606 13.0073 8.07754 12.7249 8.92577 12.192C9.77399 11.6592 10.4545 10.8976 10.8888 9.99495C11.3231 9.0923 11.4936 8.08533 11.3807 7.09001C11.2678 6.0947 10.8761 5.15151 10.2506 4.36909ZM6.68557 7.68581C6.68557 8.01098 6.41952 8.27703 6.09436 8.27703C5.76919 8.27703 5.50314 8.01098 5.50314 7.68581V5.32095C5.50314 4.99578 5.76919 4.72973 6.09436 4.72973C6.41952 4.72973 6.68557 4.99578 6.68557 5.32095V7.68581Z" fill="white"/>
</svg>
