<svg width="14" height="16" viewBox="0 0 14 16" fill="none" xmlns="http://www.w3.org/2000/svg">
<path d="M3.25 9.5V8H10.75V9.5H3.25ZM3.25 12.5V11H8.5V12.5H3.25ZM1.75 15.5C1.3375 15.5 0.98425 15.3532 0.69025 15.0597C0.39675 14.7657 0.25 14.4125 0.25 14V3.5C0.25 3.0875 0.39675 2.7345 0.69025 2.441C0.98425 2.147 1.3375 2 1.75 2H2.5V0.5H4V2H10V0.5H11.5V2H12.25C12.6625 2 13.0157 2.147 13.3097 2.441C13.6033 2.7345 13.75 3.0875 13.75 3.5V14C13.75 14.4125 13.6033 14.7657 13.3097 15.0597C13.0157 15.3532 12.6625 15.5 12.25 15.5H1.75ZM1.75 14H12.25V6.5H1.75V14Z" fill="white"/>
</svg>
