<svg width="19" height="21" viewBox="0 0 19 21" fill="none" xmlns="http://www.w3.org/2000/svg">
<g clip-path="url(#clip0_5143_1062)">
<path d="M9.99524 11.627L15.978 3.75195H3.08084L9.07053 11.627V20.04L5.94648 21H13.1184L9.99432 20.04V11.627H9.99524ZM4.73621 5.10435H14.33L13.0402 6.72602H6.02556L4.73575 5.10435H4.73621ZM6.21915 6.94442H12.8466L11.6428 8.68975L7.41562 8.68229L6.21915 6.94442ZM7.50161 8.87129H11.5568C9.80855 11.1108 9.24986 11.1108 7.50161 8.87129Z" fill="white"/>
<path d="M15.0248 1.96344L16.4149 3.53424L15.9849 1.46924C15.6267 1.54204 15.297 1.71657 15.0248 1.96391V1.96344Z" fill="white"/>
<path d="M6.44124 3.53407H6.89968L6.62747 2.95213C6.60586 2.90873 6.56309 2.87233 6.51987 2.8504L0.171975 0L0 0.385467L6.28352 3.20693L6.44124 3.53407Z" fill="white"/>
<path d="M18.4924 3.64289L16.4144 3.53369L18.1627 4.68262C18.3631 4.37742 18.4781 4.01342 18.4924 3.64289Z" fill="white"/>
<path d="M16.5294 1.42529L16.4149 3.53416L17.5543 1.75989C17.2462 1.56343 16.8949 1.44723 16.5298 1.42529H16.5294Z" fill="white"/>
<path d="M14.3369 3.42499L16.4149 3.53419L14.674 2.38525C14.4735 2.69792 14.3585 3.05445 14.3374 3.42499H14.3369Z" fill="white"/>
<path d="M18.9439 2.9886C18.6432 1.57787 17.2743 0.676269 15.8847 0.974469C14.6666 1.23627 13.8357 2.31987 13.8357 3.53414H14.1438C14.1438 2.465 14.8744 1.50554 15.9422 1.28014C17.1745 1.01087 18.3783 1.81074 18.6432 3.0544C18.9011 4.30507 18.1203 5.5268 16.8876 5.7956C16.207 5.9412 15.5407 5.7592 15.0248 5.35927L14.8386 5.6066C15.4189 6.0574 16.1854 6.26087 16.9524 6.0938C18.3493 5.7956 19.2382 4.4068 18.9444 2.98907L18.9439 2.9886Z" fill="white"/>
<path d="M16.3073 5.64256L16.4149 3.53369L15.2828 5.30796C15.5909 5.50442 15.9422 5.62063 16.3073 5.64256Z" fill="white"/>
<path d="M17.8118 5.10449L16.4149 3.53369L16.8517 5.59869C17.2099 5.52589 17.5396 5.35136 17.8118 5.10402V5.10449Z" fill="white"/>
<path d="M17.9622 2.12354L16.4144 3.53427L18.4565 3.09794C18.3779 2.7344 18.2059 2.3998 17.9622 2.12354Z" fill="white"/>
</g>
<defs>
<clipPath id="clip0_5143_1062">
<rect width="19" height="21" fill="white"/>
</clipPath>
</defs>
</svg>
