<svg width="24" height="24" viewBox="0 0 24 24" fill="none" xmlns="http://www.w3.org/2000/svg">
<mask id="mask0_2540_7982" style="mask-type:alpha" maskUnits="userSpaceOnUse" x="0" y="0" width="24" height="24">
<rect width="24" height="24" fill="#D9D9D9"/>
</mask>
<g mask="url(#mask0_2540_7982)">
<path d="M6.5 7C6.10218 7 5.72064 6.84197 5.43934 6.56066C5.15804 6.27936 5 5.89782 5 5.5C5 5.10218 5.15804 4.72064 5.43934 4.43934C5.72064 4.15804 6.10218 4 6.5 4C6.89782 4 7.27936 4.15804 7.56066 4.43934C7.84197 4.72064 8 5.10218 8 5.5C8 5.89782 7.84197 6.27936 7.56066 6.56066C7.27936 6.84197 6.89782 7 6.5 7ZM22.41 11.58L13.41 2.58C13.05 2.22 12.55 2 12 2H5C3.89 2 3 2.89 3 4V11C3 11.55 3.22 12.05 3.59 12.41L12.58 21.41C12.95 21.77 13.45 22 14 22C14.55 22 15.05 21.77 15.41 21.41L22.41 14.41C22.78 14.05 23 13.55 23 13C23 12.44 22.77 11.94 22.41 11.58Z" fill="white"/>
</g>
</svg>
