<svg width="24" height="24" viewBox="0 0 24 24" fill="none" xmlns="http://www.w3.org/2000/svg">
<path d="M12 10.8883C12.8841 10.8883 13.7319 10.5372 14.357 9.91204C14.9821 9.28691 15.3333 8.43907 15.3333 7.55501C15.3333 6.67096 14.9821 5.82311 14.357 5.19799C13.7319 4.57287 12.8841 4.22168 12 4.22168C11.1159 4.22168 10.2681 4.57287 9.64298 5.19799C9.01785 5.82311 8.66667 6.67096 8.66667 7.55501C8.66667 8.43907 9.01785 9.28691 9.64298 9.91204C10.2681 10.5372 11.1159 10.8883 12 10.8883ZM7.55555 9.77724C7.55555 10.3666 7.32143 10.9318 6.90468 11.3486C6.48793 11.7653 5.9227 11.9995 5.33333 11.9995C4.74396 11.9995 4.17873 11.7653 3.76198 11.3486C3.34524 10.9318 3.11111 10.3666 3.11111 9.77724C3.11111 9.18786 3.34524 8.62263 3.76198 8.20589C4.17873 7.78914 4.74396 7.55501 5.33333 7.55501C5.9227 7.55501 6.48793 7.78914 6.90468 8.20589C7.32143 8.62263 7.55555 9.18786 7.55555 9.77724ZM2.54444 17.9172C2.35476 17.8094 2.21271 17.6341 2.14666 17.4261C1.95089 16.792 1.94884 16.114 2.14077 15.4787C2.3327 14.8435 2.70987 14.2799 3.22399 13.8603C3.73811 13.4407 4.36577 13.1841 5.0266 13.1234C5.68743 13.0627 6.35135 13.2006 6.93333 13.5195C5.73737 14.6948 4.98881 16.2504 4.81667 17.9183C4.79111 18.165 4.80111 18.4095 4.84444 18.645C4.03351 18.5749 3.2481 18.3264 2.54444 17.9172ZM19.1556 18.6439C19.9664 18.5741 20.7518 18.326 21.4556 17.9172C21.6448 17.8092 21.7864 17.6339 21.8522 17.4261C22.0483 16.792 22.0506 16.1137 21.8588 15.4783C21.667 14.8428 21.2899 14.2791 20.7757 13.8593C20.2615 13.4395 19.6337 13.1828 18.9727 13.1221C18.3117 13.0613 17.6476 13.1993 17.0656 13.5183C18.2626 14.6936 19.0119 16.2497 19.1844 17.9183C19.2092 18.1607 19.1995 18.4054 19.1556 18.645V18.6439ZM20.8889 9.77724C20.8889 10.3666 20.6548 10.9318 20.238 11.3486C19.8213 11.7653 19.256 11.9995 18.6667 11.9995C18.0773 11.9995 17.5121 11.7653 17.0953 11.3486C16.6786 10.9318 16.4444 10.3666 16.4444 9.77724C16.4444 9.18786 16.6786 8.62263 17.0953 8.20589C17.5121 7.78914 18.0773 7.55501 18.6667 7.55501C19.256 7.55501 19.8213 7.78914 20.238 8.20589C20.6548 8.62263 20.8889 9.18786 20.8889 9.77724ZM6.78222 18.8772C6.67264 18.7791 6.58768 18.6566 6.53422 18.5195C6.48075 18.3825 6.46028 18.2348 6.47444 18.0883C6.61577 16.7211 7.25893 15.4548 8.27962 14.5342C9.3003 13.6136 10.626 13.104 12.0006 13.104C13.3751 13.104 14.7008 13.6136 15.7215 14.5342C16.7422 15.4548 17.3853 16.7211 17.5267 18.0883C17.5409 18.2348 17.5205 18.3825 17.467 18.5196C17.4135 18.6566 17.3285 18.7792 17.2189 18.8772C15.7902 20.1738 13.9293 20.8909 12 20.8883C10.071 20.8908 8.21054 20.1737 6.78222 18.8772Z" fill="white"/>
</svg>
