<svg width="38" height="21" viewBox="0 0 38 21" fill="none" xmlns="http://www.w3.org/2000/svg">
<path d="M8.28753 5.72964L9.65168 8.68646L12.8854 9.07013L10.4946 11.2807L11.1292 14.4749L8.28753 12.8844L5.44586 14.4753L6.08047 11.2812L3.6897 9.06969L6.92383 8.68602L8.28753 5.72964Z" stroke="#6F099A" stroke-width="1.42308" stroke-linejoin="round"/>
<path d="M0.669678 1V18.8303C0.669678 19.2002 0.969505 19.5 1.33936 19.5H13.3493C13.5846 19.5 13.8008 19.376 13.9322 19.1809C14.5261 18.299 15.6512 16.9887 16.6584 16.9887C17.6656 16.9887 18.7907 18.299 19.3845 19.1809C19.5159 19.376 19.7322 19.5 19.9674 19.5H35.9118C36.2816 19.5 36.5815 19.2002 36.5815 18.8303V1" stroke="#690C8E" stroke-width="1.33937"/>
<path d="M19.421 1.09345C18.9187 1.93056 17.6296 3.60477 16.4911 3.60477C15.3527 3.60477 14.0635 1.93056 13.5613 1.09345" stroke="#690C8E" stroke-width="1.33937"/>
<path d="M14.0634 1.1674H0M18.9186 1.1674H37.2511" stroke="#690C8E" stroke-width="1.33937"/>
<line x1="22.0996" y1="6.69232" x2="33.8191" y2="6.69232" stroke="#690C8E" stroke-width="1.33937"/>
<line x1="22.0996" y1="10.3756" x2="33.8191" y2="10.3756" stroke="#690C8E" stroke-width="1.33937"/>
<line x1="22.0996" y1="14.0588" x2="33.8191" y2="14.0588" stroke="#690C8E" stroke-width="1.33937"/>
<line x1="16.7419" y1="3.84616" x2="16.7419" y2="16.5701" stroke="#690C8E" stroke-width="1.33937" stroke-dasharray="2.68 1.17"/>
</svg>
