<svg width="17" height="23" viewBox="0 0 17 23" fill="none" xmlns="http://www.w3.org/2000/svg">
<path d="M8.6544 17.5826C7.62935 19.9634 8.52113 22.1418 8.52113 22.1418C7.99133 21.6976 5.65986 19.6738 2.99768 16.4555C2.59786 15.9718 2.25234 15.4782 1.95618 14.9862C3.31195 15.3317 4.43243 15.3498 5.34396 15.1919H5.3456C6.59771 14.9763 7.45823 14.4334 7.99626 13.9579C8.1789 13.9776 8.36482 13.9875 8.55404 13.9875C9.29938 13.9875 10.0085 13.8312 10.6486 13.5498C10.7555 13.5037 10.8592 13.4527 10.9612 13.3984C10.4248 14.5732 9.34874 15.9685 8.6544 17.5826Z" fill="url(#paint0_linear_2540_5217)"/>
<path d="M12.9949 17.6855C10.7901 20.1897 8.98024 21.7577 8.52118 22.1427C8.52118 22.1427 7.6294 19.9643 8.65446 17.5834C9.3488 15.9693 10.4249 14.5741 10.9612 13.3993C12.6313 12.5306 13.7715 10.7832 13.7715 8.76929C13.7715 6.39505 12.1854 4.39101 10.0152 3.7592C8.97201 3.00727 7.69028 2.56467 6.30819 2.56467C3.46831 2.56467 1.06445 4.42885 0.251648 6.99889C0.47377 5.8093 0.947632 4.70692 1.614 3.75097C8.01935 -1.89588 14.1072 3.70161 14.5975 8.76929C14.9167 12.0583 13.8752 15.4807 12.9949 17.6855Z" fill="url(#paint1_linear_2540_5217)"/>
<path d="M10.0152 3.75898C9.55123 3.62406 9.06092 3.55166 8.55415 3.55166C7.01081 3.55166 5.62213 4.22132 4.66618 5.28751C3.76782 5.28257 1.74898 5.4866 0.210571 7.24054C0.222089 7.16156 0.23525 7.08259 0.250058 7.00361C0.250058 7.00197 0.251705 7.00032 0.251705 6.99867C1.06451 4.42864 3.46837 2.56445 6.30824 2.56445C7.69034 2.56445 8.97207 3.00705 10.0152 3.75898Z" fill="url(#paint2_linear_2540_5217)"/>
<path d="M7.99645 13.9582C7.45842 14.4337 6.59791 14.9767 5.34579 15.1922H5.34415C4.43262 15.3502 3.31214 15.3321 1.95637 14.9865C1.21267 13.7558 0.768424 12.5333 0.501877 11.4902C0.0658587 9.78559 0.106993 8.55815 0.106993 8.55815C0.106993 8.10897 0.141547 7.66966 0.210651 7.24023C1.74906 5.48628 3.7679 5.28226 4.66626 5.28719C3.83865 6.21024 3.33517 7.43109 3.33517 8.76876C3.33517 11.4622 5.37541 13.6801 7.99645 13.9582Z" fill="url(#paint3_linear_2540_5217)"/>
<path d="M14.0447 16.4562C13.6877 16.8873 13.3372 17.2987 12.995 17.6853C13.8752 15.4805 14.9167 12.0582 14.5975 8.76916C14.1072 3.70147 8.01943 -1.89601 1.61407 3.75083C3.13438 1.5691 5.66164 0.142578 8.52126 0.142578C13.1694 0.142578 16.9372 3.91043 16.9372 8.55855V8.60791C16.9405 9.09165 16.8846 13.0207 14.0447 16.4562Z" fill="url(#paint4_linear_2540_5217)"/>
<defs>
<linearGradient id="paint0_linear_2540_5217" x1="1.95618" y1="17.7701" x2="10.9612" y2="17.7701" gradientUnits="userSpaceOnUse">
<stop stop-color="#541997"/>
<stop offset="1" stop-color="#4A0771"/>
</linearGradient>
<linearGradient id="paint1_linear_2540_5217" x1="2.20304" y1="17.0536" x2="12.702" y2="4.01752" gradientUnits="userSpaceOnUse">
<stop stop-color="#7919B9"/>
<stop offset="1" stop-color="#AA3CBA"/>
</linearGradient>
<linearGradient id="paint2_linear_2540_5217" x1="0.210571" y1="4.9025" x2="10.0152" y2="4.9025" gradientUnits="userSpaceOnUse">
<stop stop-color="#5F0E8E"/>
<stop offset="1" stop-color="#450A66"/>
</linearGradient>
<linearGradient id="paint3_linear_2540_5217" x1="0.106993" y1="10.2874" x2="7.99645" y2="10.2874" gradientUnits="userSpaceOnUse">
<stop stop-color="#621EAA"/>
<stop offset="1" stop-color="#601196"/>
</linearGradient>
<linearGradient id="paint4_linear_2540_5217" x1="4.60368" y1="14.1577" x2="14.1303" y2="2.15649" gradientUnits="userSpaceOnUse">
<stop stop-color="#9B37BC"/>
<stop offset="1" stop-color="#BE6FBE"/>
</linearGradient>
</defs>
</svg>
