<svg width="17" height="23" viewBox="0 0 17 23" fill="none" xmlns="http://www.w3.org/2000/svg">
<path d="M8.65367 17.5998C7.6288 19.9827 8.52048 22.1631 8.52048 22.1631C7.99076 21.7185 5.65957 19.6929 2.99762 16.4715C2.59775 15.9872 2.25223 15.4933 1.9563 15.0009C3.31194 15.3468 4.43239 15.3649 5.34386 15.2068H5.34553C6.59751 14.9912 7.45798 14.4475 7.99606 13.9717C8.17857 13.9915 8.36471 14.0012 8.55392 14.0012C9.29931 14.0012 10.0082 13.8448 10.6483 13.5633C10.7553 13.5173 10.8589 13.4663 10.9609 13.4119C10.4245 14.5878 9.34863 15.9842 8.65423 17.5998H8.65367Z" fill="url(#paint0_linear_5125_1055)"/>
<path d="M12.9938 17.7018C10.7891 20.2083 8.97958 21.7779 8.52064 22.1631C8.52064 22.1631 7.62896 19.9827 8.65384 17.5998C9.34824 15.9842 10.4241 14.5876 10.9605 13.4119C12.6305 12.5424 13.7704 10.7933 13.7704 8.77769C13.7704 6.40118 12.1843 4.39538 10.0145 3.76304C8.9715 3.01048 7.6897 2.56754 6.30787 2.56754C3.46814 2.56754 1.0645 4.43331 0.251953 7.00591C0.474038 5.81515 0.947745 4.71197 1.61428 3.75495C8.01907 -1.89706 14.1062 3.70558 14.5966 8.77796C14.9157 12.0699 13.8744 15.4955 12.9941 17.7024L12.9938 17.7018Z" fill="url(#paint1_linear_5125_1055)"/>
<path d="M10.0145 3.76277C9.55052 3.62777 9.06037 3.55524 8.5535 3.55524C7.01033 3.55524 5.62182 4.22552 4.66577 5.29271C3.76739 5.28769 1.74885 5.49187 0.210693 7.24747C0.222118 7.16853 0.235493 7.08932 0.250262 7.01038C0.250262 7.0087 0.251934 7.00703 0.251934 7.00536C1.06476 4.43304 3.4684 2.56699 6.30786 2.56699C7.68996 2.56699 8.97148 3.00993 10.0145 3.76249V3.76277Z" fill="url(#paint2_linear_5125_1055)"/>
<path d="M7.99561 13.9717C7.45754 14.4476 6.59706 14.9912 5.34508 15.2068H5.34341C4.43194 15.365 3.31149 15.3468 1.95585 15.001C1.21213 13.7692 0.767962 12.5455 0.501571 11.5015C0.0657611 9.79524 0.107001 8.56682 0.107001 8.56682C0.107001 8.11719 0.141554 7.67759 0.21066 7.24775C1.74881 5.49215 3.76764 5.28798 4.66573 5.293C3.83814 6.21682 3.33489 7.43882 3.33489 8.7777C3.33489 11.4736 5.3749 13.6936 7.99561 13.972V13.9717Z" fill="url(#paint3_linear_5125_1055)"/>
<path d="M16.1989 5.1142C16.6723 6.16773 16.9359 7.33645 16.9359 8.56682V8.61619C16.9393 9.10042 16.8833 13.0331 14.0438 16.4718C13.6868 16.9033 13.3363 17.315 12.9941 17.7019C13.8744 15.4949 14.9157 12.0697 14.5966 8.77742C14.1059 3.70531 8.01881 -1.89732 1.61401 3.75468C3.13405 1.57092 5.66114 0.143066 8.52066 0.143066C11.9394 0.143066 14.8817 2.18346 16.1989 5.1142Z" fill="url(#paint4_linear_5125_1055)"/>
<defs>
<linearGradient id="paint0_linear_5125_1055" x1="-6.59912" y1="8.05971" x2="19.6341" y2="23.6463" gradientUnits="userSpaceOnUse">
<stop stop-color="#C764C0"/>
<stop offset="0.22" stop-color="#B528BE"/>
<stop offset="0.44" stop-color="#560078"/>
<stop offset="0.7" stop-color="#6B00A9"/>
<stop offset="1" stop-color="#550081"/>
</linearGradient>
<linearGradient id="paint1_linear_5125_1055" x1="17.3452" y1="10.7935" x2="2.88268" y2="12.2558" gradientUnits="userSpaceOnUse">
<stop stop-color="#550081"/>
<stop offset="1" stop-color="#C764C0"/>
</linearGradient>
<linearGradient id="paint2_linear_5125_1055" x1="-2.41141" y1="1.01166" x2="23.8218" y2="16.598" gradientUnits="userSpaceOnUse">
<stop stop-color="#C764C0"/>
<stop offset="0.22" stop-color="#B528BE"/>
<stop offset="0.44" stop-color="#560078"/>
<stop offset="0.7" stop-color="#6B00A9"/>
<stop offset="1" stop-color="#550081"/>
</linearGradient>
<linearGradient id="paint3_linear_5125_1055" x1="-4.92571" y1="5.24335" x2="21.3078" y2="20.8297" gradientUnits="userSpaceOnUse">
<stop stop-color="#C764C0"/>
<stop offset="0.22" stop-color="#B528BE"/>
<stop offset="0.44" stop-color="#560078"/>
<stop offset="0.7" stop-color="#6B00A9"/>
<stop offset="1" stop-color="#550081"/>
</linearGradient>
<linearGradient id="paint4_linear_5125_1055" x1="9.5068" y1="12.314" x2="8.86908" y2="-4.78116" gradientUnits="userSpaceOnUse">
<stop stop-color="#B528BE"/>
<stop offset="1" stop-color="#550081"/>
</linearGradient>
</defs>
</svg>
