<svg width="32" height="32" viewBox="0 0 32 32" fill="none" xmlns="http://www.w3.org/2000/svg">
<path fill-rule="evenodd" clip-rule="evenodd" d="M15.9984 6C14.2301 6 12.79 7.43567 12.79 9.20667V16.6327C12.79 18.4039 14.2264 19.8394 15.9984 19.8394C17.7667 19.8394 19.2067 18.4037 19.2067 16.6327V9.20667C19.2067 7.43542 17.7703 6 15.9984 6ZM14.165 9.20239V16.637C14.165 17.6382 14.9858 18.4638 15.9984 18.4638C17.0179 18.4638 17.8317 17.6459 17.8317 16.637V9.20239C17.8317 8.20111 17.0109 7.37561 15.9984 7.37561C14.9788 7.37561 14.165 8.19348 14.165 9.20239Z" fill="#FFFFF7"/>
<path d="M16.75 23.6244V21.7069C20.25 21.5068 21.75 18.6359 21.75 15.8306V14.5371C21.7506 14.527 21.7505 14.5168 21.7502 14.5067L21.75 14.4912C21.75 14.1113 21.4397 13.8034 21.0601 13.8034C20.6803 13.8034 20.38 14.1113 20.38 14.4912V15.8298C20.38 18.6356 19.25 20.5564 16.05 20.5564C13.25 20.5564 11.625 18.6356 11.625 15.8298V14.5371C11.625 14.1572 11.3171 13.8493 10.9375 13.8493C10.5579 13.8493 10.25 14.1572 10.25 14.5371V15.8306C10.25 18.6391 12.25 21.5068 15.35 21.7069V23.6244H12.7732C12.3984 23.6244 12.0834 23.9324 12.0834 24.3122C12.0834 24.6947 12.3922 25 12.7732 25H19.25C19.6248 25 19.95 24.6921 19.95 24.3122C19.95 23.9297 19.631 23.6244 19.25 23.6244H16.75Z" fill="#FFFFF7"/>
</svg>
