<svg width="18" height="18" viewBox="0 0 18 18" fill="none" xmlns="http://www.w3.org/2000/svg">
<path d="M9 15.48C6.75 15.48 4.761 14.328 3.6 12.6C3.627 10.8 7.2 9.81 9 9.81C10.8 9.81 14.373 10.8 14.4 12.6C13.805 13.486 13.0013 14.212 12.0596 14.7143C11.1179 15.2165 10.0672 15.4794 9 15.48ZM9 2.7C9.71608 2.7 10.4028 2.98446 10.9092 3.49081C11.4155 3.99716 11.7 4.68392 11.7 5.4C11.7 6.11608 11.4155 6.80284 10.9092 7.30919C10.4028 7.81554 9.71608 8.1 9 8.1C8.28392 8.1 7.59716 7.81554 7.09081 7.30919C6.58446 6.80284 6.3 6.11608 6.3 5.4C6.3 4.68392 6.58446 3.99716 7.09081 3.49081C7.59716 2.98446 8.28392 2.7 9 2.7ZM9 0C7.8181 0 6.64778 0.232792 5.55585 0.685084C4.46392 1.13738 3.47177 1.80031 2.63604 2.63604C0.948211 4.32387 0 6.61305 0 9C0 11.3869 0.948211 13.6761 2.63604 15.364C3.47177 16.1997 4.46392 16.8626 5.55585 17.3149C6.64778 17.7672 7.8181 18 9 18C11.3869 18 13.6761 17.0518 15.364 15.364C17.0518 13.6761 18 11.3869 18 9C18 4.023 13.95 0 9 0Z" fill="white"/>
</svg>
