<svg width="26" height="26" viewBox="0 0 26 26" fill="none" xmlns="http://www.w3.org/2000/svg">
<path d="M13 8.55512C10.5444 8.55512 8.55556 10.544 8.55556 12.9996C8.55556 15.4551 10.5444 17.444 13 17.444C15.4556 17.444 17.4444 15.4551 17.4444 12.9996C17.4444 10.544 15.4556 8.55512 13 8.55512ZM22.9333 11.8885C22.6817 9.63526 21.6713 7.53461 20.0681 5.93145C18.465 4.32829 16.3643 3.31791 14.1111 3.06623V0.777344H11.8889V3.06623C9.63569 3.31791 7.53504 4.32829 5.93188 5.93145C4.32872 7.53461 3.31835 9.63526 3.06667 11.8885H0.777779V14.1107H3.06667C3.31835 16.3639 4.32872 18.4645 5.93188 20.0677C7.53504 21.6708 9.63569 22.6812 11.8889 22.9329V25.2218H14.1111V22.9329C16.3643 22.6812 18.465 21.6708 20.0681 20.0677C21.6713 18.4645 22.6817 16.3639 22.9333 14.1107H25.2222V11.8885H22.9333ZM13 20.7773C8.7 20.7773 5.22222 17.2996 5.22222 12.9996C5.22222 8.69957 8.7 5.22179 13 5.22179C17.3 5.22179 20.7778 8.69957 20.7778 12.9996C20.7778 17.2996 17.3 20.7773 13 20.7773Z" fill="#7825CB"/>
</svg>
