<svg width="10" height="10" viewBox="0 0 10 10" fill="none" xmlns="http://www.w3.org/2000/svg">
<g clip-path="url(#clip0_1023_7610)">
<path d="M3.64434 5.51679C3.64434 5.39152 3.54273 5.29004 3.41736 5.29004H2.62529C2.50007 5.29004 2.39844 5.39152 2.39844 5.51679V6.30876C2.39844 6.43419 2.50007 6.53572 2.62529 6.53572H3.41736C3.54273 6.53572 3.64434 6.43419 3.64434 6.30876V5.51679Z" fill="#7825CB"/>
<path d="M5.6237 5.51679C5.6237 5.39152 5.52208 5.29004 5.39695 5.29004H4.60478C4.47956 5.29004 4.37793 5.39152 4.37793 5.51679V6.30876C4.37793 6.43419 4.47956 6.53572 4.60478 6.53572H5.39695C5.52208 6.53572 5.6237 6.43419 5.6237 6.30876V5.51679Z" fill="#7825CB"/>
<path d="M7.60332 5.51679C7.60332 5.39152 7.5017 5.29004 7.37647 5.29004H6.5844C6.45903 5.29004 6.35742 5.39152 6.35742 5.51679V6.30876C6.35742 6.43419 6.45903 6.53572 6.5844 6.53572H7.37647C7.5017 6.53572 7.60332 6.43419 7.60332 6.30876V5.51679Z" fill="#7825CB"/>
<path d="M3.64434 7.49641C3.64434 7.37093 3.54273 7.26953 3.41736 7.26953H2.62529C2.50007 7.26953 2.39844 7.37093 2.39844 7.49641V8.28823C2.39844 8.41358 2.50007 8.51509 2.62529 8.51509H3.41736C3.54273 8.51509 3.64434 8.41356 3.64434 8.28823V7.49641Z" fill="#7825CB"/>
<path d="M5.6237 7.49641C5.6237 7.37093 5.52208 7.26953 5.39695 7.26953H4.60478C4.47956 7.26953 4.37793 7.37093 4.37793 7.49641V8.28823C4.37793 8.41358 4.47956 8.51509 4.60478 8.51509H5.39695C5.52208 8.51509 5.6237 8.41356 5.6237 8.28823V7.49641Z" fill="#7825CB"/>
<path d="M7.60332 7.49641C7.60332 7.37093 7.5017 7.26953 7.37657 7.26953H6.5844C6.45903 7.26953 6.35742 7.37093 6.35742 7.49641V8.28823C6.35742 8.41358 6.45903 8.51509 6.5844 8.51509H7.37657C7.5017 8.51509 7.60332 8.41356 7.60332 8.28823V7.49641Z" fill="#7825CB"/>
<path d="M9.01927 1.11372V2.32338C9.01927 2.87014 8.57572 3.31074 8.02904 3.31074H7.40438C6.85767 3.31074 6.40824 2.87014 6.40824 2.32338V1.10938H3.59272V2.32338C3.59272 2.87014 3.14331 3.31074 2.59668 3.31074H1.9719C1.42524 3.31074 0.981712 2.87014 0.981712 2.32338V1.11372C0.503931 1.12812 0.111328 1.52347 0.111328 2.0094V9.09861C0.111328 9.59368 0.512596 10.0003 1.00767 10.0003H8.99329C9.48762 10.0003 9.88963 9.59284 9.88963 9.09861V2.0094C9.88963 1.52347 9.49705 1.12812 9.01927 1.11372ZM8.72913 8.65715C8.72913 8.8711 8.55566 9.04467 8.34163 9.04467H1.64226C1.42823 9.04467 1.25476 8.8711 1.25476 8.65715V4.99532C1.25476 4.78128 1.42821 4.60771 1.64226 4.60771H8.34161C8.55564 4.60771 8.72911 4.78128 8.72911 4.99532L8.72913 8.65715Z" fill="#7825CB"/>
<path d="M1.96949 2.66198H2.58737C2.77492 2.66198 2.92698 2.51014 2.92698 2.3226V0.339505C2.92698 0.15194 2.77492 0 2.58737 0H1.96949C1.78193 0 1.62988 0.15194 1.62988 0.339505V2.3226C1.62988 2.51014 1.78193 2.66198 1.96949 2.66198Z" fill="#7825CB"/>
<path d="M7.39623 2.66198H8.01411C8.20153 2.66198 8.35359 2.51014 8.35359 2.3226V0.339505C8.35361 0.15194 8.20155 0 8.01411 0H7.39623C7.2087 0 7.05664 0.15194 7.05664 0.339505V2.3226C7.05664 2.51014 7.2087 2.66198 7.39623 2.66198Z" fill="#7825CB"/>
</g>
<defs>
<clipPath id="clip0_1023_7610">
<rect width="10" height="10" fill="white"/>
</clipPath>
</defs>
</svg>
