<svg width="10" height="10" viewBox="0 0 10 10" fill="none" xmlns="http://www.w3.org/2000/svg">
<g clip-path="url(#clip0_1023_7622)">
<path d="M6.78119 5.88344L5.38691 4.83773V2.70762C5.38691 2.49344 5.21379 2.32031 4.99961 2.32031C4.78543 2.32031 4.6123 2.49344 4.6123 2.70762V5.03141C4.6123 5.1534 4.66963 5.26844 4.76723 5.34125L6.31641 6.50314C6.38611 6.55543 6.46746 6.58061 6.5484 6.58061C6.66652 6.58061 6.78272 6.52754 6.85863 6.42529C6.98725 6.25447 6.95238 6.01164 6.78119 5.88344Z" fill="#7825CB"/>
<path d="M5 0C2.24283 0 0 2.24283 0 5C0 7.75717 2.24283 10 5 10C7.75717 10 10 7.75717 10 5C10 2.24283 7.75717 0 5 0ZM5 9.22541C2.67041 9.22541 0.77459 7.32959 0.77459 5C0.77459 2.67041 2.67041 0.77459 5 0.77459C7.32998 0.77459 9.22541 2.67041 9.22541 5C9.22541 7.32959 7.32959 9.22541 5 9.22541Z" fill="#7825CB"/>
</g>
<defs>
<clipPath id="clip0_1023_7622">
<rect width="10" height="10" fill="white"/>
</clipPath>
</defs>
</svg>
