<svg width="27" height="32" viewBox="0 0 27 32" fill="none" xmlns="http://www.w3.org/2000/svg">
<path d="M13.7144 15.7857C14.6081 15.7857 15.3735 15.4819 16.0105 14.8743C16.6464 14.2677 16.9644 13.5382 16.9644 12.6857C16.9644 11.8332 16.6464 11.1032 16.0105 10.4956C15.3735 9.88899 14.6081 9.58571 13.7144 9.58571C12.8206 9.58571 12.0558 9.88899 11.4199 10.4956C10.7829 11.1032 10.4644 11.8332 10.4644 12.6857C10.4644 13.5382 10.7829 14.2677 11.4199 14.8743C12.0558 15.4819 12.8206 15.7857 13.7144 15.7857ZM13.7144 31.2857C9.35394 27.7465 6.09744 24.459 3.94486 21.4231C1.79119 18.3882 0.714355 15.579 0.714355 12.9957C0.714355 9.1207 2.0214 6.03362 4.63548 3.73446C7.24848 1.43529 10.2748 0.285706 13.7144 0.285706C17.1539 0.285706 20.1802 1.43529 22.7932 3.73446C25.4073 6.03362 26.7144 9.1207 26.7144 12.9957C26.7144 15.579 25.6381 18.3882 23.4855 21.4231C21.3318 24.459 18.0748 27.7465 13.7144 31.2857Z" fill="#FF285C"/>
</svg>
