<svg width="36" height="16" viewBox="0 0 36 16" fill="none" xmlns="http://www.w3.org/2000/svg">
<path d="M6.77306 2.72595C6.35835 3.20602 5.69481 3.58467 5.03127 3.53058C4.94833 2.88146 5.27318 2.19178 5.65334 1.7658C6.06805 1.2722 6.79379 0.920601 7.3813 0.893555C7.45042 1.56971 7.18086 2.23235 6.77306 2.72595ZM7.37439 3.65905C6.41364 3.60495 5.59113 4.19321 5.13495 4.19321C4.67185 4.19321 3.97376 3.68609 3.21345 3.69962C2.22506 3.71314 1.30578 4.26083 0.801216 5.13308C-0.235561 6.87757 0.531654 9.4605 1.53387 10.8804C2.02461 11.5836 2.61212 12.3545 3.38625 12.3274C4.11891 12.3004 4.4092 11.8609 5.29392 11.8609C6.18555 11.8609 6.44129 12.3274 7.21542 12.3139C8.01719 12.3004 8.52176 11.6107 9.0125 10.9075C9.57236 10.1096 9.80045 9.33203 9.81427 9.29146C9.80045 9.27793 8.25219 6.97223 8.25219 6.97223C8.25219 6.97223 9.46177 4.83557 9.51706 4.795C8.82588 3.79428 7.74763 3.68609 7.37439 3.65905ZM12.9246 1.69818V12.2395H14.5973C14.5973 12.2395 13.4132 9.39634 14.5973 8.63558H16.9127C16.9127 8.63558 20.5138 7.21565 20.5138 5.16012C20.5138 3.1046 19.0554 1.69818 16.968 1.69818H12.9246ZM14.5973 3.07755H16.5257C17.9772 3.07755 18.8066 5.16688 18.8066 5.16688C18.8066 5.16688 17.9772 7.26298 16.5188 7.26298H14.5973C13.1118 6.58102 14.5973 3.07755 14.5973 3.07755ZM23.5689 12.3207C24.6195 12.3207 25.594 11.8 26.0364 10.9751H26.0709V12.2395H27.6192V6.99251C27.6192 5.47116 26.3751 4.49072 24.4605 4.49072C22.6841 4.49072 21.3709 5.48468 21.3225 6.85052H22.8293C22.9537 6.20141 23.5689 5.77543 24.4121 5.77543C25.4351 5.77543 26.0087 6.24198 26.0087 7.1007V7.6822L23.9214 7.80391C21.9791 7.91885 20.9285 8.69644 20.9285 10.0488C20.9285 11.4146 22.0137 12.3207 23.5689 12.3207ZM24.0181 11.0698C23.1265 11.0698 22.5597 10.6505 22.5597 10.0082C22.5597 9.34555 23.1058 8.96014 24.1495 8.89929L26.0087 8.78434V9.37936C26.0087 10.3666 25.1517 11.0698 24.0181 11.0698ZM29.6858 15.1064C31.317 15.1064 32.0843 14.4979 32.7547 12.652L35.6922 4.59215H33.9919L32.0221 10.8196H31.9875L30.0176 4.59215H28.2689L31.1028 12.2666L30.9507 12.7331C30.695 13.5242 30.2803 13.8285 29.5407 13.8285C29.4094 13.8285 29.1536 13.815 29.05 13.8014V15.0659C29.1467 15.0929 29.5614 15.1064 29.6858 15.1064Z" fill="white"/>
</svg>
