<svg width="142" height="142" viewBox="0 0 142 142" fill="none" xmlns="http://www.w3.org/2000/svg">
<circle cx="71" cy="71" r="69" fill="#9D9D9D" stroke="white" stroke-width="3"/>
<path d="M89.6715 74.0079C88.9791 74.0079 88.3151 74.283 87.8255 74.7726C87.3359 75.2621 87.0609 75.9262 87.0609 76.6186V77.6106L83.1972 73.7469C81.8329 72.3934 79.989 71.6339 78.0673 71.6339C76.1455 71.6339 74.3016 72.3934 72.9374 73.7469L71.1099 75.5743L64.6356 69.0999C63.2522 67.7831 61.4155 67.0487 59.5057 67.0487C57.5958 67.0487 55.7591 67.7831 54.3758 69.0999L50.512 72.9637V58.3441C50.512 57.6517 50.7871 56.9877 51.2767 56.4981C51.7663 56.0085 52.4303 55.7335 53.1227 55.7335H71.3971C72.0895 55.7335 72.7535 55.4585 73.2431 54.9689C73.7327 54.4793 74.0077 53.8153 74.0077 53.1229C74.0077 52.4305 73.7327 51.7665 73.2431 51.2769C72.7535 50.7873 72.0895 50.5122 71.3971 50.5122H53.1227C51.0455 50.5122 49.0534 51.3374 47.5847 52.8061C46.1159 54.2749 45.2908 56.267 45.2908 58.3441V89.6717C45.2908 91.7489 46.1159 93.7409 47.5847 95.2097C49.0534 96.6785 51.0455 97.5036 53.1227 97.5036H84.4503C86.5274 97.5036 88.5195 96.6785 89.9882 95.2097C91.457 93.7409 92.2822 91.7489 92.2822 89.6717V76.6186C92.2822 75.9262 92.0071 75.2621 91.5175 74.7726C91.0279 74.283 90.3639 74.0079 89.6715 74.0079ZM53.1227 92.2823C52.4303 92.2823 51.7663 92.0073 51.2767 91.5177C50.7871 91.0281 50.512 90.3641 50.512 89.6717V80.3518L58.0829 72.7809C58.4664 72.4154 58.9759 72.2116 59.5057 72.2116C60.0355 72.2116 60.5449 72.4154 60.9285 72.7809L69.2042 81.0566L80.4299 92.2823H53.1227ZM87.0609 89.6717C87.0571 90.1715 86.8923 90.6567 86.591 91.0554L74.817 79.2292L76.6445 77.4017C76.8316 77.2107 77.055 77.059 77.3016 76.9554C77.5481 76.8518 77.8129 76.7984 78.0803 76.7984C78.3477 76.7984 78.6125 76.8518 78.859 76.9554C79.1056 77.059 79.329 77.2107 79.5162 77.4017L87.0609 84.9987V89.6717ZM99.357 51.2693L91.5251 43.4374C91.2768 43.1998 90.984 43.0134 90.6636 42.8892C90.028 42.6281 89.3151 42.6281 88.6795 42.8892C88.359 43.0134 88.0663 43.1998 87.818 43.4374L79.9861 51.2693C79.4945 51.7609 79.2183 52.4277 79.2183 53.1229C79.2183 53.8181 79.4945 54.4848 79.9861 54.9764C80.4777 55.468 81.1444 55.7442 81.8396 55.7442C82.5348 55.7442 83.2016 55.468 83.6932 54.9764L87.0609 51.5826V66.176C87.0609 66.8684 87.3359 67.5324 87.8255 68.022C88.3151 68.5116 88.9791 68.7867 89.6715 68.7867C90.3639 68.7867 91.0279 68.5116 91.5175 68.022C92.0071 67.5324 92.2822 66.8684 92.2822 66.176V51.5826L95.6499 54.9764C95.8926 55.2211 96.1813 55.4153 96.4994 55.5479C96.8176 55.6804 97.1588 55.7486 97.5034 55.7486C97.848 55.7486 98.1893 55.6804 98.5074 55.5479C98.8255 55.4153 99.1143 55.2211 99.357 54.9764C99.6017 54.7337 99.7959 54.445 99.9284 54.1269C100.061 53.8087 100.129 53.4675 100.129 53.1229C100.129 52.7782 100.061 52.437 99.9284 52.1189C99.7959 51.8008 99.6017 51.512 99.357 51.2693Z" fill="white"/>
</svg>
