<svg width="40" height="40" viewBox="0 0 40 40" fill="none" xmlns="http://www.w3.org/2000/svg">
<rect width="40" height="40" rx="20" fill="#740899"/>
<g clip-path="url(#clip0_2540_5202)">
<path d="M19.9952 20.627L25.978 12.752H13.0808L19.0705 20.627V29.04L15.9465 30H23.1184L19.9943 29.04V20.627H19.9952ZM14.7362 14.1044H24.33L23.0402 15.726H16.0256L14.7358 14.1044H14.7362ZM16.2192 15.9444H22.8466L21.6428 17.6898L17.4156 17.6823L16.2192 15.9444ZM17.5016 17.8713H21.5568C19.8086 20.1108 19.2499 20.1108 17.5016 17.8713Z" fill="white"/>
<path d="M25.0248 10.9634L26.4149 12.5342L25.9849 10.4692C25.6267 10.542 25.297 10.7166 25.0248 10.9639V10.9634Z" fill="white"/>
<path d="M16.4412 12.5341H16.8997L16.6275 11.9521C16.6059 11.9087 16.5631 11.8723 16.5199 11.8504L10.172 9L10 9.38547L16.2835 12.2069L16.4412 12.5341Z" fill="white"/>
<path d="M28.4924 12.6429L26.4144 12.5337L28.1627 13.6826C28.3631 13.3774 28.4781 13.0134 28.4924 12.6429Z" fill="white"/>
<path d="M26.5294 10.4253L26.4149 12.5342L27.5543 10.7599C27.2462 10.5634 26.8949 10.4472 26.5298 10.4253H26.5294Z" fill="white"/>
<path d="M24.3369 12.425L26.4149 12.5342L24.674 11.3853C24.4735 11.6979 24.3585 12.0545 24.3374 12.425H24.3369Z" fill="white"/>
<path d="M28.9439 11.9886C28.6432 10.5779 27.2743 9.67627 25.8847 9.97447C24.6666 10.2363 23.8357 11.3199 23.8357 12.5341H24.1438C24.1438 11.465 24.8744 10.5055 25.9422 10.2801C27.1745 10.0109 28.3783 10.8107 28.6432 12.0544C28.9011 13.3051 28.1203 14.5268 26.8876 14.7956C26.207 14.9412 25.5407 14.7592 25.0248 14.3593L24.8386 14.6066C25.4189 15.0574 26.1854 15.2609 26.9524 15.0938C28.3493 14.7956 29.2382 13.4068 28.9444 11.9891L28.9439 11.9886Z" fill="white"/>
<path d="M26.3073 14.6426L26.4149 12.5337L25.2828 14.308C25.5909 14.5044 25.9422 14.6206 26.3073 14.6426Z" fill="white"/>
<path d="M27.8118 14.1045L26.4149 12.5337L26.8517 14.5987C27.2099 14.5259 27.5396 14.3514 27.8118 14.104V14.1045Z" fill="white"/>
<path d="M27.9622 11.1235L26.4144 12.5343L28.4565 12.0979C28.3779 11.7344 28.2059 11.3998 27.9622 11.1235Z" fill="white"/>
</g>
<defs>
<clipPath id="clip0_2540_5202">
<rect width="19" height="21" fill="white" transform="translate(10 9)"/>
</clipPath>
</defs>
</svg>
