<svg width="203" height="149" viewBox="0 0 203 149" fill="none" xmlns="http://www.w3.org/2000/svg">
<path d="M84.8331 60.5C82.4859 60.5 80.2349 59.5676 78.5752 57.9079C76.9155 56.2482 75.9831 53.9972 75.9831 51.65C75.9831 49.3028 76.9155 47.0518 78.5752 45.3921C80.2349 43.7324 82.4859 42.8 84.8331 42.8C87.1803 42.8 89.4313 43.7324 91.091 45.3921C92.7507 47.0518 93.6831 49.3028 93.6831 51.65C93.6831 53.9972 92.7507 56.2482 91.091 57.9079C89.4313 59.5676 87.1803 60.5 84.8331 60.5ZM178.702 87.522L125.602 34.422C123.478 32.298 120.528 31 117.283 31H75.9831C69.4341 31 64.1831 36.251 64.1831 42.8V84.1C64.1831 87.345 65.4811 90.295 67.6641 92.419L120.705 145.519C122.888 147.643 125.838 149 129.083 149C132.328 149 135.278 147.643 137.402 145.519L178.702 104.219C180.885 102.095 182.183 99.145 182.183 95.9C182.183 92.596 180.826 89.646 178.702 87.522Z" fill="url(#paint0_linear_247_1077)"/>
<circle cx="54.9319" cy="6.22355" r="4.69511" stroke="#7825CB" stroke-width="2"/>
<circle cx="52.6545" cy="133.794" r="2.27804" fill="#7825CB"/>
<circle cx="174.461" cy="74.278" r="2.27804" fill="#F0F0F0"/>
<path fill-rule="evenodd" clip-rule="evenodd" d="M190.536 13.8308L188.375 18.6279L186.795 17.9161L188.956 13.119L184.158 10.9583L184.87 9.37793L189.667 11.5386L191.828 6.7415L193.408 7.4533L191.248 12.2504L196.045 14.4111L195.333 15.9915L190.536 13.8308Z" fill="#7825CB" stroke="#7825CB"/>
<path fill-rule="evenodd" clip-rule="evenodd" d="M195.995 113.524L193.834 118.321L192.254 117.609L194.415 112.812L189.617 110.651L190.329 109.071L195.126 111.231L197.287 106.434L198.867 107.146L196.707 111.943L201.504 114.104L200.792 115.684L195.995 113.524Z" fill="#F0F0F0" stroke="#F0F0F0"/>
<path fill-rule="evenodd" clip-rule="evenodd" d="M4.1008 81.8354L0.607599 82.0298L0.543562 80.879L4.03676 80.6847L3.84238 77.1914L4.99315 77.1274L5.18753 80.6206L8.68073 80.4262L8.74477 81.577L5.25157 81.7714L5.44596 85.2646L4.29519 85.3286L4.1008 81.8354Z" fill="#D5DDE0" stroke="#D5DDE0" stroke-width="0.664972"/>
<defs>
<linearGradient id="paint0_linear_247_1077" x1="182.183" y1="90" x2="64.1831" y2="90" gradientUnits="userSpaceOnUse">
<stop stop-color="#AC3DBA"/>
<stop offset="1" stop-color="#7825CB"/>
</linearGradient>
</defs>
</svg>
