<svg width="56" height="56" viewBox="0 0 56 56" fill="none" xmlns="http://www.w3.org/2000/svg">
<circle cx="28" cy="28" r="28" fill="#7825CB"/>
<path d="M15.4005 31.1436C15.6233 31.1436 15.837 31.2284 15.9945 31.3795C16.152 31.5306 16.2405 31.7356 16.2405 31.9493V35.9778C16.2405 36.4052 16.4175 36.8151 16.7326 37.1173C17.0477 37.4195 17.475 37.5893 17.9205 37.5893H38.0805C38.5261 37.5893 38.9534 37.4195 39.2685 37.1173C39.5835 36.8151 39.7605 36.4052 39.7605 35.9778V31.9493C39.7605 31.7356 39.849 31.5306 40.0066 31.3795C40.1641 31.2284 40.3778 31.1436 40.6005 31.1436C40.8233 31.1436 41.037 31.2284 41.1945 31.3795C41.352 31.5306 41.4405 31.7356 41.4405 31.9493V35.9778C41.4405 36.8326 41.0865 37.6523 40.4564 38.2567C39.8263 38.8611 38.9717 39.2007 38.0805 39.2007H17.9205C17.0294 39.2007 16.1748 38.8611 15.5447 38.2567C14.9145 37.6523 14.5605 36.8326 14.5605 35.9778V31.9493C14.5605 31.7356 14.649 31.5306 14.8066 31.3795C14.9641 31.2284 15.1778 31.1436 15.4005 31.1436Z" fill="white"/>
<path d="M27.4055 34.2902C27.4835 34.3653 27.5762 34.4248 27.6783 34.4654C27.7803 34.506 27.8897 34.5269 28.0002 34.5269C28.1107 34.5269 28.2201 34.506 28.3221 34.4654C28.4242 34.4248 28.5169 34.3653 28.5949 34.2902L33.6349 29.456C33.7927 29.3047 33.8813 29.0995 33.8813 28.8855C33.8813 28.6715 33.7927 28.4664 33.6349 28.3151C33.4772 28.1638 33.2633 28.0788 33.0402 28.0788C32.8171 28.0788 32.6032 28.1638 32.4455 28.3151L28.8402 31.7748V17.6055C28.8402 17.3918 28.7517 17.1869 28.5942 17.0358C28.4366 16.8847 28.223 16.7998 28.0002 16.7998C27.7774 16.7998 27.5638 16.8847 27.4062 17.0358C27.2487 17.1869 27.1602 17.3918 27.1602 17.6055V31.7748L23.5549 28.3151C23.3972 28.1638 23.1833 28.0788 22.9602 28.0788C22.7371 28.0788 22.5232 28.1638 22.3655 28.3151C22.2078 28.4664 22.1191 28.6715 22.1191 28.8855C22.1191 29.0995 22.2078 29.3047 22.3655 29.456L27.4055 34.2902Z" fill="white"/>
</svg>
