<svg width="21" height="17" viewBox="0 0 21 17" fill="none" xmlns="http://www.w3.org/2000/svg">
<path d="M20.4844 7.65234C18.5859 3.32812 14.7891 0.375 10.5 0.375C6.17578 0.375 2.37891 3.32812 0.480469 7.65234C0.410156 7.82812 0.375 8.07422 0.375 8.25C0.375 8.42578 0.410156 8.70703 0.480469 8.88281C2.37891 13.207 6.17578 16.125 10.5 16.125C14.7891 16.125 18.5859 13.207 20.4844 8.88281C20.5547 8.70703 20.625 8.42578 20.625 8.25C20.625 8.07422 20.5547 7.82812 20.4844 7.65234ZM10.5 14.4375C6.98438 14.4375 3.75 12.082 2.0625 8.28516C3.78516 4.45312 6.98438 2.0625 10.5 2.0625C13.9805 2.0625 17.2148 4.45312 18.9023 8.25C17.1797 12.082 13.9805 14.4375 10.5 14.4375ZM10.5 3.75C8.00391 3.75 6 5.78906 6 8.25C6 10.7461 8.00391 12.75 10.5 12.75C12.9609 12.75 15 10.7461 15 8.28516C15 5.78906 12.9609 3.75 10.5 3.75ZM10.5 11.0625C8.91797 11.0625 7.6875 9.83203 7.6875 8.25C7.6875 8.25 7.6875 8.21484 7.6875 8.17969C7.86328 8.25 8.03906 8.25 8.25 8.25C9.48047 8.25 10.5 7.26562 10.5 6C10.5 5.82422 10.4648 5.64844 10.3945 5.47266C10.4297 5.47266 10.4648 5.4375 10.5 5.4375C12.0469 5.4375 13.3125 6.70312 13.3125 8.28516C13.3125 9.83203 12.0469 11.0625 10.5 11.0625Z" fill="white"/>
</svg>
