<svg width="23" height="19" viewBox="0 0 23 19" fill="none" xmlns="http://www.w3.org/2000/svg">
<path d="M5.52344 3.51953C7.10547 2.32422 9.07422 1.375 11.5 1.375C14.3125 1.375 16.5977 2.67578 18.25 4.22266C19.9023 5.73438 20.9922 7.5625 21.5195 8.82812C21.625 9.10938 21.625 9.42578 21.5195 9.70703C21.0625 10.832 20.1133 12.4492 18.707 13.8555L22.3984 16.7734C22.7852 17.0547 22.8555 17.582 22.5391 17.9336C22.2578 18.3203 21.7305 18.3906 21.3789 18.0742L0.566406 1.76172C0.179688 1.48047 0.109375 0.953125 0.425781 0.601562C0.707031 0.214844 1.23438 0.144531 1.58594 0.460938L5.52344 3.51953ZM6.89453 4.60938L8.51172 5.875C9.32031 5.17188 10.3398 4.75 11.5 4.75C13.9609 4.75 16 6.78906 16 9.25C16 10.0234 15.7891 10.7266 15.4727 11.3242L17.3711 12.8008C18.5664 11.6055 19.4102 10.2344 19.8672 9.25C19.375 8.19531 18.4609 6.71875 17.0898 5.45312C15.6484 4.11719 13.7852 3.0625 11.5 3.0625C9.70703 3.0625 8.16016 3.69531 6.89453 4.60938ZM14.1016 10.2695C14.2422 9.95312 14.3125 9.60156 14.3125 9.25C14.3125 7.70312 13.0469 6.4375 11.5 6.4375C11.4648 6.4375 11.4297 6.4375 11.3945 6.4375C11.4648 6.64844 11.5 6.82422 11.5 7C11.5 7.38672 11.3945 7.70312 11.2539 8.01953L14.1016 10.2695ZM14.4531 14.8398L15.9297 16C14.6289 16.7031 13.1523 17.125 11.5 17.125C8.65234 17.125 6.36719 15.8594 4.71484 14.3125C3.0625 12.7656 1.97266 10.9375 1.44531 9.70703C1.33984 9.42578 1.33984 9.10938 1.44531 8.82812C1.79688 8.01953 2.35938 7 3.16797 5.94531L4.46875 7C3.83594 7.80859 3.37891 8.61719 3.09766 9.25C3.58984 10.3047 4.50391 11.8164 5.875 13.082C7.31641 14.418 9.17969 15.4375 11.5 15.4375C12.5547 15.4375 13.5391 15.2266 14.4531 14.8398ZM7 9.25C7 9.17969 7 9.07422 7 8.96875L8.96875 10.5156C9.32031 11.2539 10.0234 11.8164 10.8672 11.9922L12.8359 13.5742C12.4141 13.6797 11.957 13.75 11.4648 13.75C9.00391 13.75 6.96484 11.7461 6.96484 9.25H7Z" fill="white"/>
</svg>
