<svg width="38" height="38" viewBox="0 0 38 38" fill="none" xmlns="http://www.w3.org/2000/svg">
<g clip-path="url(#clip0_1023_7050)">
<path d="M17.285 18.2025V22.8005H15.8252V11.4432H19.6949C20.629 11.4226 21.5299 11.7773 22.2013 12.4265C22.8805 13.0376 23.2621 13.9116 23.2479 14.8236C23.2684 15.742 22.8853 16.6223 22.2013 17.2351C21.5236 17.8811 20.6876 18.2041 19.6949 18.2025H17.285ZM17.285 12.8413V16.8076H19.7313C20.2744 16.8234 20.7969 16.6112 21.1753 16.2201C21.9416 15.476 21.9606 14.2489 21.2133 13.4826C21.2006 13.4699 21.1879 13.4556 21.1753 13.4446C20.8032 13.0456 20.2759 12.8271 19.7313 12.8413H17.285ZM26.6109 14.7761C27.6907 14.7761 28.5409 15.0643 29.1648 15.6406C29.7886 16.217 30.1005 17.0086 30.1005 18.0109V22.8021H28.7056V21.7222H28.6423C28.0374 22.6105 27.2331 23.0554 26.2309 23.0554C25.3743 23.0554 24.6586 22.8021 24.0823 22.2938C23.5234 21.822 23.2051 21.1237 23.2178 20.3906C23.2178 19.5863 23.5218 18.9466 24.1298 18.4716C24.7378 17.9966 25.5484 17.7576 26.5649 17.7576C27.431 17.7576 28.1451 17.9159 28.7056 18.2326V17.8985C28.7088 17.3981 28.4871 16.9247 28.1024 16.6081C27.716 16.2597 27.2141 16.0697 26.6932 16.0761C25.8794 16.0761 25.2334 16.4196 24.7584 17.1068L23.4743 16.2977C24.1789 15.2828 25.2254 14.7761 26.6109 14.7761ZM24.7219 20.4223C24.7204 20.7991 24.9009 21.1538 25.2049 21.3739C25.5279 21.6272 25.9284 21.7634 26.3385 21.7539C26.9544 21.7523 27.545 21.5069 27.9804 21.0715C28.4634 20.6155 28.7056 20.0835 28.7056 19.4691C28.2496 19.1066 27.6163 18.9245 26.8024 18.9245C26.2103 18.9245 25.7147 19.067 25.3189 19.3536C24.9214 19.6465 24.7219 19.9996 24.7219 20.4223ZM38.1122 15.0295L33.2403 26.2284H31.7345L33.5427 22.3096L30.3364 15.0295H31.9229L34.2394 20.6123H34.271L36.5241 15.0295H38.1122Z" fill="white"/>
<path d="M12.7922 18.5251C12.7922 18.0802 12.7558 17.6368 12.6798 17.1982H6.52539V19.711H10.0499C9.90422 20.5217 9.43397 21.2389 8.74681 21.6933V23.3257H10.8511C12.0829 22.1921 12.7922 20.5122 12.7922 18.5251Z" fill="#4285F4"/>
<path d="M6.52515 24.9022C8.28581 24.9022 9.7694 24.3243 10.8508 23.3268L8.74656 21.6944C8.16073 22.0918 7.40706 22.3182 6.52515 22.3182C4.82306 22.3182 3.37906 21.1703 2.86131 19.625H0.695312V21.3065C1.80365 23.5121 4.05831 24.9022 6.52515 24.9022Z" fill="#34A853"/>
<path d="M2.86227 19.6257C2.58835 18.8166 2.58835 17.9379 2.86227 17.1272V15.4473H0.694687C-0.231562 17.2918 -0.231562 19.4642 0.694687 21.3088L2.86227 19.6257Z" fill="#FBBC04"/>
<path d="M6.52399 14.4206C7.45453 14.388 8.35897 14.7203 9.04597 15.3497L10.8726 13.4515C9.66993 12.3666 8.09392 11.7878 6.47325 11.8371C4.00689 11.8855 1.7784 13.3213 0.715144 15.5466L2.91533 17.1852C3.40102 15.6285 4.82223 14.454 6.52399 14.4206Z" fill="#EA4335"/>
</g>
<defs>
<clipPath id="clip0_1023_7050">
<rect width="38" height="38" fill="white"/>
</clipPath>
</defs>
</svg>
