<svg width="20" height="20" viewBox="0 0 20 20" fill="none" xmlns="http://www.w3.org/2000/svg">
<path d="M9.99978 16.7552L5.15252 19.8127C4.93838 19.9554 4.71451 20.0166 4.48091 19.9962C4.24731 19.9758 4.04291 19.8943 3.8677 19.7516C3.6925 19.6089 3.55623 19.4307 3.4589 19.2171C3.36156 19.0027 3.3421 18.763 3.4005 18.498L4.68531 12.7193L0.392861 8.83623C0.198192 8.65278 0.0767187 8.44365 0.0284408 8.20883C-0.0206158 7.97483 -0.00621035 7.74572 0.0716573 7.5215C0.149525 7.29728 0.266326 7.11383 0.422062 6.97115C0.577797 6.82846 0.791933 6.73674 1.06447 6.69597L6.72934 6.17619L8.91936 0.733805C9.0167 0.489204 9.16776 0.305752 9.37255 0.183451C9.57657 0.0611505 9.78564 0 9.99978 0C10.2139 0 10.4234 0.0611505 10.6282 0.183451C10.8322 0.305752 10.9829 0.489204 11.0802 0.733805L13.2702 6.17619L18.9351 6.69597C19.2076 6.73674 19.4218 6.82846 19.5775 6.97115C19.7332 7.11383 19.85 7.29728 19.9279 7.5215C20.0058 7.74572 20.0206 7.97483 19.9723 8.20883C19.9232 8.44365 19.8014 8.65278 19.6067 8.83623L15.3142 12.7193L16.5991 18.498C16.6575 18.763 16.638 19.0027 16.5407 19.2171C16.4433 19.4307 16.3071 19.6089 16.1319 19.7516C15.9567 19.8943 15.7523 19.9758 15.5186 19.9962C15.285 20.0166 15.0612 19.9554 14.847 19.8127L9.99978 16.7552Z" fill="white"/>
<path fill-rule="evenodd" clip-rule="evenodd" d="M5.15252 19.8127L9.99978 16.7552V0C9.78564 0 9.57657 0.0611505 9.37255 0.183451C9.16776 0.305752 9.0167 0.489204 8.91936 0.733805L6.72934 6.17619L1.06447 6.69597C0.791933 6.73674 0.577797 6.82846 0.422062 6.97115C0.266326 7.11383 0.149525 7.29728 0.0716573 7.5215C-0.00621036 7.74572 -0.0206158 7.97483 0.0284408 8.20883C0.0767187 8.44365 0.198192 8.65278 0.392861 8.83623L4.68531 12.7193L3.4005 18.498C3.3421 18.763 3.36156 19.0027 3.4589 19.2171C3.55623 19.4307 3.6925 19.6089 3.8677 19.7516C4.04291 19.8943 4.24731 19.9758 4.48091 19.9962C4.71451 20.0166 4.93838 19.9554 5.15252 19.8127Z" fill="#7825CB"/>
</svg>
