<svg width="18" height="22" viewBox="0 0 18 22" fill="none" xmlns="http://www.w3.org/2000/svg">
<path d="M9.3137 17.4407C8.28865 19.8215 9.18043 22 9.18043 22C8.65063 21.5557 6.31916 19.532 3.65698 16.3137C3.25716 15.8299 2.91164 15.3363 2.61548 14.8444C3.97125 15.1899 5.09173 15.208 6.00326 15.05H6.0049C7.25701 14.8345 8.11753 14.2915 8.65556 13.816C8.8382 13.8358 9.02412 13.8456 9.21334 13.8456C9.95868 13.8456 10.6678 13.6893 11.3079 13.408C11.4148 13.3619 11.5185 13.3109 11.6205 13.2566C11.0841 14.4314 10.008 15.8266 9.3137 17.4407Z" fill="url(#paint0_linear_35_465)"/>
<path d="M13.6541 17.5428C11.4494 20.047 9.63948 21.615 9.18043 22C9.18043 22 8.28864 19.8216 9.3137 17.4407C10.008 15.8266 11.0841 14.4314 11.6205 13.2566C13.2905 12.3879 14.4307 10.6405 14.4307 8.62659C14.4307 6.25235 12.8446 4.24831 10.6744 3.6165C9.63125 2.86457 8.34952 2.42197 6.96743 2.42197C4.12755 2.42197 1.72369 4.28615 0.910889 6.85619C1.13301 5.6666 1.60687 4.56422 2.27324 3.60827C8.67859 -2.03858 14.7664 3.55891 15.2567 8.62659C15.5759 11.9156 14.5344 15.338 13.6541 17.5428Z" fill="url(#paint1_linear_35_465)"/>
<path d="M10.6745 3.61652C10.2105 3.4816 9.72022 3.40921 9.21345 3.40921C7.67011 3.40921 6.28143 4.07887 5.32548 5.14505C4.42712 5.14012 2.40828 5.34414 0.869873 7.09809C0.881391 7.01911 0.894552 6.94013 0.90936 6.86115C0.90936 6.85951 0.911007 6.85786 0.911007 6.85622C1.72381 4.28618 4.12767 2.422 6.96755 2.422C8.34964 2.422 9.63137 2.8646 10.6745 3.61652Z" fill="url(#paint2_linear_35_465)"/>
<path d="M8.65563 13.816C8.1176 14.2915 7.25708 14.8345 6.00497 15.05H6.00333C5.0918 15.208 3.97132 15.1899 2.61555 14.8443C1.87185 13.6136 1.4276 12.3911 1.16106 11.348C0.725038 9.64337 0.766173 8.41594 0.766173 8.41594C0.766173 7.96676 0.800726 7.52745 0.869831 7.09802C2.40823 5.34407 4.42708 5.14005 5.32544 5.14498C4.49783 6.06803 3.99435 7.28888 3.99435 8.62655C3.99435 11.32 6.03459 13.5379 8.65563 13.816Z" fill="url(#paint3_linear_35_465)"/>
<path d="M14.7038 16.3137C14.3468 16.7447 13.9963 17.1561 13.6541 17.5427C14.5344 15.338 15.5759 11.9156 15.2567 8.62658C14.7663 3.5589 8.67855 -2.03859 2.27319 3.60826C3.7935 1.42652 6.32076 0 9.18038 0C13.8285 0 17.5964 3.76786 17.5964 8.41597V8.46533C17.5996 8.94907 17.5437 12.8782 14.7038 16.3137Z" fill="url(#paint4_linear_35_465)"/>
<defs>
<linearGradient id="paint0_linear_35_465" x1="2.61548" y1="17.6283" x2="11.6205" y2="17.6283" gradientUnits="userSpaceOnUse">
<stop stop-color="#541997"/>
<stop offset="1" stop-color="#4A0771"/>
</linearGradient>
<linearGradient id="paint1_linear_35_465" x1="2.86228" y1="16.9109" x2="13.3613" y2="3.87482" gradientUnits="userSpaceOnUse">
<stop stop-color="#7919B9"/>
<stop offset="1" stop-color="#AA3CBA"/>
</linearGradient>
<linearGradient id="paint2_linear_35_465" x1="0.869873" y1="4.76004" x2="10.6745" y2="4.76004" gradientUnits="userSpaceOnUse">
<stop stop-color="#5F0E8E"/>
<stop offset="1" stop-color="#450A66"/>
</linearGradient>
<linearGradient id="paint3_linear_35_465" x1="0.766173" y1="10.1452" x2="8.65563" y2="10.1452" gradientUnits="userSpaceOnUse">
<stop stop-color="#621EAA"/>
<stop offset="1" stop-color="#601196"/>
</linearGradient>
<linearGradient id="paint4_linear_35_465" x1="5.2628" y1="14.0151" x2="14.7894" y2="2.01391" gradientUnits="userSpaceOnUse">
<stop stop-color="#9B37BC"/>
<stop offset="1" stop-color="#BE6FBE"/>
</linearGradient>
</defs>
</svg>
