<svg width="20" height="20" viewBox="0 0 20 20" fill="none" xmlns="http://www.w3.org/2000/svg">
<path fill-rule="evenodd" clip-rule="evenodd" d="M0 10.0281C0 4.60029 4.41596 0.184326 9.84375 0.184326C15.2715 0.184326 19.6875 4.60029 19.6875 10.0281C19.6875 15.4559 15.2715 19.8718 9.84375 19.8718C4.41596 19.8718 0 15.4559 0 10.0281ZM12.5976 11.0943L14.8163 5.54775C14.8438 5.47895 14.8505 5.40357 14.8357 5.33098C14.8208 5.25838 14.7849 5.19175 14.7325 5.13934C14.6801 5.08694 14.6135 5.05107 14.5409 5.03617C14.4683 5.02128 14.3929 5.02802 14.3241 5.05556L8.7775 7.27419C8.39657 7.42653 8.05055 7.65467 7.76045 7.94478C7.47035 8.23488 7.24221 8.58089 7.08987 8.96183L4.87124 14.5084C4.8437 14.5772 4.83695 14.6526 4.85185 14.7252C4.86674 14.7978 4.90261 14.8644 4.95502 14.9168C5.00742 14.9692 5.07405 15.0051 5.14665 15.02C5.21925 15.0349 5.29462 15.0281 5.36342 15.0006L10.91 12.782C11.2909 12.6296 11.6369 12.4015 11.9271 12.1114C12.2172 11.8213 12.4453 11.4753 12.5976 11.0943ZM10.9796 10.0281C10.9796 10.6554 10.4711 11.1639 9.84379 11.1639C9.21649 11.1639 8.70797 10.6554 8.70797 10.0281C8.70797 9.40079 9.21649 8.89227 9.84379 8.89227C10.4711 8.89227 10.9796 9.40079 10.9796 10.0281Z" fill="#AC3DBA"/>
</svg>
