<svg width="18" height="21" viewBox="0 0 18 21" fill="none" xmlns="http://www.w3.org/2000/svg">
<path d="M15.25 8H14V5.5C14 2.72656 11.7344 0.5 9 0.5C6.22656 0.5 4 2.76562 4 5.5V8H2.75C1.34375 8 0.25 9.13281 0.25 10.5V18C0.25 19.3672 1.34375 20.5 2.75 20.5H15.25C16.6172 20.5 17.75 19.3672 17.75 18V10.5C17.75 9.13281 16.6172 8 15.25 8ZM5.875 5.5C5.875 3.78125 7.24219 2.375 9 2.375C10.7188 2.375 12.125 3.78125 12.125 5.5V8H5.875V5.5ZM15.875 18C15.875 18.3516 15.5625 18.625 15.25 18.625H2.75C2.39844 18.625 2.125 18.3516 2.125 18V10.5C2.125 10.1875 2.39844 9.875 2.75 9.875H15.25C15.5625 9.875 15.875 10.1875 15.875 10.5V18Z" fill="white"/>
</svg>
