<svg width="18" height="21" viewBox="0 0 18 21" fill="none" xmlns="http://www.w3.org/2000/svg">
<path d="M15.0654 8H13.8154V5.5C13.8154 2.72656 11.5498 0.5 8.81538 0.5C6.04195 0.5 3.81538 2.76562 3.81538 5.5V8H2.56538C1.15913 8 0.0653849 9.13281 0.0653849 10.5V18C0.0653849 19.3672 1.15913 20.5 2.56538 20.5H15.0654C16.4326 20.5 17.5654 19.3672 17.5654 18V10.5C17.5654 9.13281 16.4326 8 15.0654 8ZM5.69038 5.5C5.69038 3.78125 7.05757 2.375 8.81538 2.375C10.5341 2.375 11.9404 3.78125 11.9404 5.5V8H5.69038V5.5ZM15.6904 18C15.6904 18.3516 15.3779 18.625 15.0654 18.625H2.56538C2.21382 18.625 1.94038 18.3516 1.94038 18V10.5C1.94038 10.1875 2.21382 9.875 2.56538 9.875H15.0654C15.3779 9.875 15.6904 10.1875 15.6904 10.5V18Z" fill="#7825CB"/>
</svg>
