<svg width="32" height="32" viewBox="0 0 32 32" fill="none" xmlns="http://www.w3.org/2000/svg">
<g clip-path="url(#clip0_2351_1409)">
<g filter="url(#filter0_d_2351_1409)">
<path d="M16.0002 16C16.7335 16 17.3615 15.7386 17.8842 15.216C18.4059 14.6942 18.6668 14.0666 18.6668 13.3333C18.6668 12.6 18.4059 11.972 17.8842 11.4493C17.3615 10.9275 16.7335 10.6666 16.0002 10.6666C15.2668 10.6666 14.6393 10.9275 14.1175 11.4493C13.5948 11.972 13.3335 12.6 13.3335 13.3333C13.3335 14.0666 13.5948 14.6942 14.1175 15.216C14.6393 15.7386 15.2668 16 16.0002 16ZM16.0002 29.3333C12.4224 26.2888 9.75038 23.4608 7.98416 20.8493C6.21705 18.2386 5.3335 15.8222 5.3335 13.6C5.3335 10.2666 6.40594 7.61107 8.55083 5.63329C10.6948 3.65551 13.1779 2.66663 16.0002 2.66663C18.8224 2.66663 21.3055 3.65551 23.4495 5.63329C25.5944 7.61107 26.6668 10.2666 26.6668 13.6C26.6668 15.8222 25.7837 18.2386 24.0175 20.8493C22.2504 23.4608 19.5779 26.2888 16.0002 29.3333Z" fill="white"/>
<path d="M18.238 11.096L18.2374 11.0954C17.6218 10.4808 16.867 10.1666 16.0002 10.1666C15.1333 10.1666 14.3788 10.4809 13.7639 11.0957C13.1483 11.7113 12.8335 12.4662 12.8335 13.3333C12.8335 14.2003 13.1483 14.9547 13.7639 15.5695C14.3787 16.1852 15.1332 16.5 16.0002 16.5C16.8673 16.5 17.6221 16.1851 18.2377 15.5695C18.8526 14.9546 19.1668 14.2002 19.1668 13.3333C19.1668 12.4664 18.8526 11.7117 18.238 11.096ZM8.39834 20.5692L8.39823 20.569C6.66461 18.0078 5.8335 15.6885 5.8335 13.6C5.8335 10.3844 6.86261 7.8701 8.88977 6.00087L8.88985 6.00081C10.9449 4.10506 13.3082 3.16663 16.0002 3.16663C18.6922 3.16663 21.0554 4.10506 23.1105 6.00081L23.1106 6.00087C25.1377 7.8701 26.1668 10.3844 26.1668 13.6C26.1668 15.6886 25.3361 18.0079 23.6034 20.5691C21.9237 23.0514 19.395 25.7537 16.0002 28.6752C12.6053 25.7537 10.0771 23.0514 8.39834 20.5692Z" stroke="#7825CB"/>
</g>
</g>
<defs>
<filter id="filter0_d_2351_1409" x="-17.6665" y="-8.33337" width="67.3335" height="72.6666" filterUnits="userSpaceOnUse" color-interpolation-filters="sRGB">
<feFlood flood-opacity="0" result="BackgroundImageFix"/>
<feColorMatrix in="SourceAlpha" type="matrix" values="0 0 0 0 0 0 0 0 0 0 0 0 0 0 0 0 0 0 127 0" result="hardAlpha"/>
<feOffset dy="12"/>
<feGaussianBlur stdDeviation="11.5"/>
<feComposite in2="hardAlpha" operator="out"/>
<feColorMatrix type="matrix" values="0 0 0 0 0.752941 0 0 0 0 0.27451 0 0 0 0 0.827451 0 0 0 0.1 0"/>
<feBlend mode="normal" in2="BackgroundImageFix" result="effect1_dropShadow_2351_1409"/>
<feBlend mode="normal" in="SourceGraphic" in2="effect1_dropShadow_2351_1409" result="shape"/>
</filter>
<clipPath id="clip0_2351_1409">
<rect width="32" height="32" fill="white"/>
</clipPath>
</defs>
</svg>
