<svg width="45" height="46" viewBox="0 0 45 46" fill="none" xmlns="http://www.w3.org/2000/svg">
<path d="M22.5714 38.9029C16.9999 38.9029 12.0748 36.0503 9.19993 31.7714C9.26679 27.3143 18.1142 24.8629 22.5714 24.8629C27.0285 24.8629 35.8759 27.3143 35.9428 31.7714C34.4695 33.9653 32.4793 35.7632 30.1475 37.0068C27.8158 38.2504 25.214 38.9015 22.5714 38.9029ZM22.5714 7.25716C24.3445 7.25716 26.0451 7.96154 27.2989 9.21536C28.5527 10.4692 29.2571 12.1697 29.2571 13.9429C29.2571 15.716 28.5527 17.4166 27.2989 18.6704C26.0451 19.9242 24.3445 20.6286 22.5714 20.6286C20.7982 20.6286 19.0977 19.9242 17.8438 18.6704C16.59 17.4166 15.8856 15.716 15.8856 13.9429C15.8856 12.1697 16.59 10.4692 17.8438 9.21536C19.0977 7.96154 20.7982 7.25716 22.5714 7.25716ZM22.5714 0.571442C19.6448 0.571442 16.7468 1.14788 14.043 2.26784C11.3392 3.3878 8.8824 5.02936 6.81298 7.09878C2.6336 11.2782 0.285645 16.9466 0.285645 22.8572C0.285645 28.7677 2.6336 34.4362 6.81298 38.6155C8.8824 40.685 11.3392 42.3265 14.043 43.4465C16.7468 44.5664 19.6448 45.1429 22.5714 45.1429C28.4819 45.1429 34.1504 42.7949 38.3297 38.6155C42.5091 34.4362 44.8571 28.7677 44.8571 22.8572C44.8571 10.5332 34.8285 0.571442 22.5714 0.571442Z" fill="#7825CB"/>
</svg>
