<svg width="17" height="22" viewBox="0 0 17 22" fill="none" xmlns="http://www.w3.org/2000/svg">
<path d="M8.54857 17.4407C7.52351 19.8215 8.41529 22 8.41529 22C7.88549 21.5557 5.55403 19.532 2.89185 16.3137C2.49203 15.8299 2.14651 15.3363 1.85034 14.8444C3.20611 15.1899 4.3266 15.208 5.23812 15.05H5.23976C6.49188 14.8345 7.3524 14.2915 7.89043 13.816C8.07306 13.8358 8.25899 13.8456 8.4482 13.8456C9.19355 13.8456 9.90269 13.6893 10.5427 13.408C10.6497 13.3619 10.7533 13.3109 10.8554 13.2566C10.319 14.4314 9.24291 15.8266 8.54857 17.4407Z" fill="url(#paint0_linear_50_542)"/>
<path d="M12.889 17.5428C10.6842 20.047 8.87434 21.615 8.41529 22C8.41529 22 7.52351 19.8216 8.54856 17.4407C9.2429 15.8266 10.319 14.4314 10.8553 13.2566C12.5254 12.3879 13.6656 10.6405 13.6656 8.62659C13.6656 6.25235 12.0795 4.24831 9.90927 3.6165C8.86612 2.86457 7.58439 2.42197 6.20229 2.42197C3.36241 2.42197 0.958556 4.28615 0.145752 6.85619C0.367874 5.6666 0.841736 4.56422 1.5081 3.60827C7.91346 -2.03858 14.0013 3.55891 14.4916 8.62659C14.8108 11.9156 13.7693 15.338 12.889 17.5428Z" fill="url(#paint1_linear_50_542)"/>
<path d="M9.90939 3.61646C9.4454 3.48154 8.95508 3.40915 8.44831 3.40915C6.90497 3.40915 5.5163 4.0788 4.56035 5.14499C3.66198 5.14006 1.64314 5.34408 0.104736 7.09802C0.116254 7.01905 0.129415 6.94007 0.144223 6.86109C0.144223 6.85945 0.14587 6.8578 0.14587 6.85616C0.958674 4.28612 3.36253 2.42194 6.20241 2.42194C7.5845 2.42194 8.86623 2.86454 9.90939 3.61646Z" fill="url(#paint2_linear_50_542)"/>
<path d="M7.8905 13.816C7.35247 14.2915 6.49195 14.8345 5.23984 15.05H5.23819C4.32667 15.208 3.20618 15.1899 1.85041 14.8443C1.10671 13.6136 0.662467 12.3911 0.39592 11.348C-0.0400984 9.64337 0.00103645 8.41594 0.00103645 8.41594C0.00103645 7.96676 0.0355896 7.52745 0.104694 7.09802C1.6431 5.34407 3.66194 5.14005 4.5603 5.14498C3.73269 6.06803 3.22922 7.28888 3.22922 8.62655C3.22922 11.32 5.26945 13.5379 7.8905 13.816Z" fill="url(#paint3_linear_50_542)"/>
<path d="M13.9387 16.3137C13.5816 16.7447 13.2312 17.1561 12.889 17.5427C13.7692 15.338 14.8107 11.9156 14.4915 8.62658C14.0012 3.5589 7.91341 -2.03859 1.50806 3.60826C3.02836 1.42652 5.55562 0 8.41524 0C13.0634 0 16.8312 3.76786 16.8312 8.41597V8.46533C16.8345 8.94907 16.7786 12.8782 13.9387 16.3137Z" fill="url(#paint4_linear_50_542)"/>
<defs>
<linearGradient id="paint0_linear_50_542" x1="1.85034" y1="17.6283" x2="10.8554" y2="17.6283" gradientUnits="userSpaceOnUse">
<stop stop-color="#541997"/>
<stop offset="1" stop-color="#4A0771"/>
</linearGradient>
<linearGradient id="paint1_linear_50_542" x1="2.09714" y1="16.9109" x2="12.5961" y2="3.87482" gradientUnits="userSpaceOnUse">
<stop stop-color="#7919B9"/>
<stop offset="1" stop-color="#AA3CBA"/>
</linearGradient>
<linearGradient id="paint2_linear_50_542" x1="0.104736" y1="4.75998" x2="9.90939" y2="4.75998" gradientUnits="userSpaceOnUse">
<stop stop-color="#5F0E8E"/>
<stop offset="1" stop-color="#450A66"/>
</linearGradient>
<linearGradient id="paint3_linear_50_542" x1="0.00103638" y1="10.1452" x2="7.8905" y2="10.1452" gradientUnits="userSpaceOnUse">
<stop stop-color="#621EAA"/>
<stop offset="1" stop-color="#601196"/>
</linearGradient>
<linearGradient id="paint4_linear_50_542" x1="4.49766" y1="14.0151" x2="14.0242" y2="2.01391" gradientUnits="userSpaceOnUse">
<stop stop-color="#9B37BC"/>
<stop offset="1" stop-color="#BE6FBE"/>
</linearGradient>
</defs>
</svg>
