<svg width="7" height="6" viewBox="0 0 7 6" fill="none" xmlns="http://www.w3.org/2000/svg">
<path d="M3.33489 5.02656L1.88072 5.94382C1.81648 5.98662 1.74932 6.00497 1.67923 5.99885C1.60915 5.99274 1.54783 5.96828 1.49527 5.92547C1.44271 5.88267 1.40183 5.82922 1.37263 5.76514C1.34343 5.70081 1.33759 5.62889 1.35511 5.5494L1.74056 3.81579L0.452819 2.65087C0.394419 2.59583 0.357977 2.53309 0.343493 2.46265C0.328776 2.39245 0.333098 2.32372 0.356458 2.25645C0.379818 2.18918 0.414859 2.13415 0.461579 2.09134C0.5083 2.04854 0.572541 2.02102 0.654302 2.00879L2.35376 1.85286L3.01077 0.220142C3.03997 0.146761 3.08529 0.0917256 3.14673 0.0550354C3.20793 0.0183452 3.27065 0 3.33489 0C3.39914 0 3.46197 0.0183452 3.52341 0.0550354C3.58462 0.0917256 3.62982 0.146761 3.65902 0.220142L4.31603 1.85286L6.01549 2.00879C6.09725 2.02102 6.16149 2.04854 6.20821 2.09134C6.25493 2.13415 6.28997 2.18918 6.31333 2.25645C6.33669 2.32372 6.34113 2.39245 6.32665 2.46265C6.31193 2.53309 6.27537 2.59583 6.21697 2.65087L4.92923 3.81579L5.31468 5.5494C5.3322 5.62889 5.32636 5.70081 5.29716 5.76514C5.26796 5.82922 5.22708 5.88267 5.17452 5.92547C5.12196 5.96828 5.06064 5.99274 4.99056 5.99885C4.92047 6.00497 4.85331 5.98662 4.78907 5.94382L3.33489 5.02656Z" fill="white"/>
</svg>
