<svg width="31" height="31" viewBox="0 0 31 31" fill="none" xmlns="http://www.w3.org/2000/svg">
<circle cx="15.6675" cy="15.6675" r="14.6675" fill="#9D9D9D" stroke="white"/>
<g clip-path="url(#clip0_2703_2192)">
<mask id="mask0_2703_2192" style="mask-type:alpha" maskUnits="userSpaceOnUse" x="8" y="8" width="15" height="15">
<rect x="8" y="8" width="15" height="15" fill="#D9D9D9"/>
</mask>
<g mask="url(#mask0_2703_2192)">
<path d="M11.125 19.1562C11.6875 18.6042 12.3411 18.1693 13.0859 17.8516C13.8307 17.5339 14.6354 17.375 15.5 17.375C16.3646 17.375 17.1693 17.5339 17.9141 17.8516C18.6589 18.1693 19.3125 18.6042 19.875 19.1562V11.125H11.125V19.1562ZM15.5 16.125C16.1042 16.125 16.6198 15.9115 17.0469 15.4844C17.474 15.0573 17.6875 14.5417 17.6875 13.9375C17.6875 13.3333 17.474 12.8177 17.0469 12.3906C16.6198 11.9635 16.1042 11.75 15.5 11.75C14.8958 11.75 14.3802 11.9635 13.9531 12.3906C13.526 12.8177 13.3125 13.3333 13.3125 13.9375C13.3125 14.5417 13.526 15.0573 13.9531 15.4844C14.3802 15.9115 14.8958 16.125 15.5 16.125ZM11.125 21.125C10.7812 21.125 10.487 21.0026 10.2422 20.7578C9.9974 20.513 9.875 20.2188 9.875 19.875V11.125C9.875 10.7812 9.9974 10.487 10.2422 10.2422C10.487 9.9974 10.7812 9.875 11.125 9.875H19.875C20.2188 9.875 20.513 9.9974 20.7578 10.2422C21.0026 10.487 21.125 10.7812 21.125 11.125V19.875C21.125 20.2188 21.0026 20.513 20.7578 20.7578C20.513 21.0026 20.2188 21.125 19.875 21.125H11.125ZM12.375 19.875H18.625V19.7188C18.1875 19.3542 17.7031 19.0807 17.1719 18.8984C16.6406 18.7161 16.0833 18.625 15.5 18.625C14.9167 18.625 14.3594 18.7161 13.8281 18.8984C13.2969 19.0807 12.8125 19.3542 12.375 19.7188V19.875ZM15.5 14.875C15.2396 14.875 15.0182 14.7839 14.8359 14.6016C14.6536 14.4193 14.5625 14.1979 14.5625 13.9375C14.5625 13.6771 14.6536 13.4557 14.8359 13.2734C15.0182 13.0911 15.2396 13 15.5 13C15.7604 13 15.9818 13.0911 16.1641 13.2734C16.3464 13.4557 16.4375 13.6771 16.4375 13.9375C16.4375 14.1979 16.3464 14.4193 16.1641 14.6016C15.9818 14.7839 15.7604 14.875 15.5 14.875Z" fill="white"/>
</g>
</g>
<defs>
<clipPath id="clip0_2703_2192">
<rect width="13.3187" height="13.3187" fill="white" transform="translate(9.09277 9.0918)"/>
</clipPath>
</defs>
</svg>
